<svg width="1440" height="193" viewBox="0 0 1440 193" fill="none" xmlns="http://www.w3.org/2000/svg">
<path d="M93.4261 136.809L92.3786 160.87C80.8558 163.938 67.5654 165.472 52.5072 165.472C33.2589 165.472 19.6411 161.681 11.6537 154.099C7.59455 150.198 4.62657 145.377 2.74975 139.636C0.916584 133.894 0 126.838 0 118.467C0 110.359 0.982055 99.9715 2.94616 87.3053C4.51745 77.4001 6.19785 69.1605 7.98738 62.5863C12.0029 47.2465 17.5679 35.6321 24.6823 27.7431C30.4437 21.388 37.5363 16.6984 45.9601 13.6743C54.4276 10.6502 64.8374 9.13813 77.1895 9.13813C91.9421 9.13813 104.731 10.694 115.555 13.8058L109.074 37.8016C98.9911 36.0485 88.865 35.1719 78.6953 35.1719C64.641 35.1719 54.2967 38.7658 47.6624 45.9536C43.0795 50.95 39.5659 58.7952 37.1217 69.4892C36.2487 73.1708 35.1794 79.1094 33.9136 87.3053C32.0368 98.9197 31.0984 107.444 31.0984 112.879C31.0984 117.262 31.5785 120.987 32.5387 124.055C33.499 127.123 35.0921 129.84 37.3181 132.207C41.8573 137.028 50.1502 139.439 62.1968 139.439C72.5411 139.439 82.9509 138.562 93.4261 136.809Z" fill="white"/>
<path d="M155.64 88.0942L143.659 163.895H115.376L128.863 78.2986C129.998 71.067 131.482 63.6601 133.315 56.0779C140.124 52.3963 147.675 49.679 155.968 47.9259C164.522 46.1289 172.881 45.2304 181.043 45.2304C185.145 45.2304 188.965 45.4277 192.5 45.8221L186.542 69.2262C184.534 68.9194 181.806 68.766 178.358 68.766C174.823 68.766 171.266 69.0948 167.687 69.7522C164.282 70.3219 161.314 71.1985 158.783 72.3818C157.735 76.2825 156.688 81.52 155.64 88.0942Z" fill="white"/>
<path d="M197.394 105.319C199.097 94.4492 201.41 85.333 204.334 77.9699C207.302 70.563 211.165 64.3832 215.922 59.4307C220.724 54.4781 226.55 50.8842 233.403 48.649C240.256 46.37 248.527 45.2304 258.216 45.2304C274.278 45.2304 285.561 48.5614 292.064 55.2232C295.251 58.5103 297.564 62.3672 299.004 66.7938C300.445 71.1766 301.165 76.4578 301.165 82.6376C301.165 88.1599 300.532 94.9752 299.266 103.083C298.873 106.107 298.262 109.241 297.433 112.484C290.799 113.712 282.113 114.873 271.376 115.969C260.508 117.064 250.862 117.853 242.438 118.335L223.452 119.322C223.277 121.206 223.19 122.696 223.19 123.792C223.19 130.848 225.285 135.713 229.475 138.387C233.359 140.841 239.164 142.068 246.89 142.068C258.238 142.068 272.118 141.038 288.529 138.978L287.482 161.002C269.193 163.982 252.302 165.472 236.807 165.472C221.706 165.472 210.947 161.703 204.531 154.165C198.638 147.196 195.692 137.401 195.692 124.778C195.692 119.431 196.26 112.945 197.394 105.319ZM225.808 99.336L245.581 98.3499C255.008 97.9116 263.694 97.1446 271.638 96.0489C272.031 94.8218 272.358 93.2659 272.62 91.3813C273.056 88.5763 273.274 86.1438 273.274 84.0839C273.274 78.4739 271.79 74.3322 268.822 71.6587C265.854 68.9414 261.141 67.5827 254.681 67.5827C245.253 67.5827 238.182 70.563 233.469 76.5236C232.028 78.4082 230.828 80.5777 229.868 83.032C228.165 87.5901 226.812 93.0248 225.808 99.336Z" fill="white"/>
<path d="M398.932 47.7286L406.199 1.57781H434.744L414.055 132.404C412.921 139.636 411.437 147.043 409.603 154.625C402.795 158.307 395.244 161.024 386.951 162.777C378.396 164.574 370.038 165.472 361.876 165.472C353.67 165.472 346.752 164.793 341.122 163.434C335.491 162.076 330.734 159.906 326.849 156.926C319.211 150.965 315.392 140.688 315.392 126.093C315.392 119.782 316.003 112.857 317.225 105.319C319.058 93.8795 321.546 84.3469 324.688 76.7208C327.875 69.0509 331.956 62.915 336.931 58.3131C341.951 53.6673 347.712 50.3145 354.216 48.2546C360.675 46.2385 368.444 45.2304 377.523 45.2304C384.507 45.2304 391.643 46.0632 398.932 47.7286ZM379.684 68.2401C368.204 68.2401 359.977 71.2642 355.001 77.3125C351.684 81.3008 349.174 87.6121 347.472 96.2462C347.036 98.3937 346.512 101.418 345.901 105.319C344.766 112.638 344.199 118.16 344.199 121.886C344.199 128.153 345.595 133.084 348.389 136.677C351.575 140.622 357.271 142.594 365.476 142.594C372.94 142.594 379.051 141.564 383.808 139.504C384.899 134.946 385.947 129.709 386.951 123.792L395.265 70.804C390.29 69.0947 385.096 68.2401 379.684 68.2401Z" fill="white"/>
<path d="M492.479 10.9789C492.479 12.8635 492.326 14.7043 492.021 16.5012C491.017 22.7248 489.14 27.0199 486.39 29.3866C483.597 31.7972 479.014 33.0024 472.642 33.0024C467.317 33.0024 463.519 32.1697 461.25 30.5043C459.024 28.8388 457.911 26.0338 457.911 22.0893C457.911 20.7306 458.085 18.8679 458.435 16.5012C459.438 10.3653 461.315 6.09208 464.065 3.68154C466.902 1.22718 471.485 0 477.814 0C483.095 0 486.849 0.832729 489.075 2.49819C491.344 4.16366 492.479 6.99056 492.479 10.9789ZM466.357 163.895H437.746L456.209 46.8082H484.819L466.357 163.895Z" fill="white"/>
<path d="M537.987 87.4367L525.941 163.895H497.592L511.079 78.2986C512.257 70.6287 513.763 63.2218 515.596 56.0779C529.912 48.8462 547.524 45.2304 568.431 45.2304C580.696 45.2304 590.036 46.9616 596.452 50.424C600.86 52.8784 603.981 56.034 605.814 59.8909C607.691 63.7477 608.608 68.4154 608.564 73.8939C608.564 77.5316 608.062 82.6814 607.058 89.3433L595.274 163.895H566.859L578.186 91.9729C578.797 88.0723 579.102 84.8947 579.102 82.4404C579.102 77.4878 577.662 73.9597 574.781 71.8559C572.032 69.7522 566.859 68.6565 559.265 68.5688C551.932 68.5688 545.909 69.6207 541.195 71.7244C539.929 76.677 538.86 81.9144 537.987 87.4367Z" fill="white"/>
<path d="M628.918 105.319C630.62 94.4492 632.934 85.333 635.858 77.9699C638.826 70.563 642.689 64.3832 647.446 59.4307C652.247 54.4781 658.074 50.8842 664.927 48.649C671.779 46.37 680.05 45.2304 689.74 45.2304C705.802 45.2304 717.085 48.5614 723.588 55.2232C726.774 58.5103 729.088 62.3672 730.528 66.7938C731.968 71.1766 732.689 76.4578 732.689 82.6376C732.689 88.1599 732.056 94.9752 730.79 103.083C730.397 106.107 729.786 109.241 728.957 112.484C722.322 113.712 713.637 114.873 702.9 115.969C692.031 117.064 682.386 117.853 673.962 118.335L654.975 119.322C654.801 121.206 654.713 122.696 654.713 123.792C654.713 130.848 656.808 135.713 660.999 138.387C664.883 140.841 670.688 142.068 678.414 142.068C689.762 142.068 703.642 141.038 720.053 138.978L719.005 161.002C700.717 163.982 683.826 165.472 668.331 165.472C653.229 165.472 642.471 161.703 636.054 154.165C630.162 147.196 627.216 137.401 627.216 124.778C627.216 119.431 627.783 112.945 628.918 105.319ZM657.332 99.336L677.104 98.3499C686.532 97.9116 695.218 97.1446 703.161 96.0489C703.554 94.8218 703.882 93.2659 704.143 91.3813C704.58 88.5763 704.798 86.1438 704.798 84.0839C704.798 78.4739 703.314 74.3322 700.346 71.6587C697.378 68.9414 692.664 67.5827 686.205 67.5827C676.777 67.5827 669.706 70.563 664.992 76.5236C663.552 78.4082 662.352 80.5777 661.391 83.032C659.689 87.5901 658.336 93.0248 657.332 99.336Z" fill="white"/>
<path d="M773.498 46.8082L777.95 18.4735L807.149 13.7401L801.912 46.8082H824.892L821.422 68.9633H798.376L788.818 129.512C788.599 131.352 788.49 132.667 788.49 133.456C788.49 136.831 789.429 139.285 791.306 140.819C793.182 142.309 796.172 143.054 800.275 143.054C803.461 143.054 806.691 142.923 809.965 142.66L808.852 163.434C801.432 164.793 794.819 165.472 789.014 165.472C778.801 165.472 771.272 163.5 766.427 159.556C761.582 155.611 759.16 149.541 759.16 141.345C759.16 138.672 759.422 135.713 759.945 132.47L769.962 68.9633H751.369L754.839 46.8082H773.498Z" fill="white"/>
<path d="M848.456 10.7159H861.288L871.305 146.013L925.056 36.8155C926.54 33.7913 928.067 31.5999 929.639 30.2413C931.21 28.8388 933.021 28.1375 935.073 28.1375C937.124 28.1375 938.739 28.8388 939.918 30.2413C941.096 31.6438 941.925 33.8571 942.405 36.8812L960.279 145.947L1012.39 10.7159H1024.7L967.873 156.531C965.516 162.492 962.068 165.472 957.529 165.472C955.434 165.472 953.775 164.749 952.553 163.303C951.331 161.857 950.48 159.599 950 156.531L931.865 46.8082L877.786 156.531C874.906 162.492 871.436 165.472 867.376 165.472C862.881 165.472 860.415 162.492 859.978 156.531L848.456 10.7159Z" fill="white"/>
<path d="M1029.32 105.319C1031.03 94.5369 1033.3 85.4207 1036.13 77.9699C1038.93 70.6068 1042.68 64.4271 1047.39 59.4307C1052.02 54.4781 1057.65 50.8842 1064.29 48.649C1070.92 46.37 1078.97 45.2304 1088.44 45.2304C1103.72 45.2304 1114.65 48.4737 1121.24 54.9602C1127.44 61.0085 1130.54 69.7741 1130.54 81.257C1130.54 85.6398 1130.1 90.5924 1129.23 96.1147C1128.49 100.541 1127.75 104.573 1127.01 108.211C1120.98 109.219 1111.88 110.315 1099.7 111.498C1088.14 112.594 1078.25 113.317 1070.05 113.668L1040 114.917C1039.73 118.379 1039.6 121.666 1039.6 124.778C1039.6 128.065 1039.8 130.98 1040.19 133.522C1041.11 139.439 1043.1 143.843 1046.15 146.736C1051.65 151.995 1061.08 154.625 1074.43 154.625C1085.65 154.625 1099.18 153.485 1115.03 151.206L1114.57 161.725C1105.4 163.084 1097.74 164.026 1091.59 164.552C1084.47 165.166 1076.18 165.472 1066.71 165.472C1052.39 165.472 1042.18 161.791 1036.07 154.428C1030.39 147.459 1027.56 137.773 1027.56 125.37C1027.56 119.585 1028.15 112.901 1029.32 105.319ZM1041.24 104.793L1074.63 103.215C1089.78 102.47 1103.68 101.308 1116.33 99.7305C1116.86 97.5829 1117.45 94.4711 1118.1 90.3951C1118.58 87.0204 1118.82 84.0839 1118.82 81.5857C1118.82 73.2584 1116.31 66.9034 1111.29 62.5206C1106.27 58.0939 1098.18 55.8806 1087 55.8806C1079.41 55.8806 1073.02 56.8229 1067.82 58.7075C1062.67 60.5921 1058.35 63.5943 1054.86 67.7142C1051.37 71.834 1048.55 76.8523 1046.41 82.7691C1044.27 88.8612 1042.55 96.2023 1041.24 104.793Z" fill="white"/>
<path d="M1211.32 45.2304C1225.25 45.2304 1235.35 48.1231 1241.63 53.9084C1247.92 59.6498 1251.06 69.292 1251.06 82.8348C1251.06 89.146 1250.39 96.6406 1249.03 105.319C1247.2 116.845 1244.71 126.422 1241.57 134.048C1238.47 141.674 1234.45 147.81 1229.52 152.456C1224.55 157.101 1218.79 160.454 1212.24 162.514C1205.69 164.486 1197.84 165.472 1188.67 165.472C1172.13 165.472 1158.57 162.448 1148.01 156.4C1148.71 149.563 1149.56 143.098 1150.57 137.006L1171.97 1.57781H1183.96L1176.3 50.0953C1189 46.8521 1200.67 45.2304 1211.32 45.2304ZM1174.59 61.0742L1163.79 129.38C1162.83 135.341 1161.91 141.827 1161.04 148.84C1165.14 150.812 1169.75 152.28 1174.86 153.244C1180.27 154.252 1185.44 154.756 1190.37 154.756C1197.75 154.756 1204.01 153.858 1209.16 152.061C1214.31 150.22 1218.7 147.306 1222.32 143.317C1225.99 139.285 1228.98 134.245 1231.29 128.197C1233.6 122.105 1235.48 114.479 1236.92 105.319C1238.27 97.1227 1238.95 90.1322 1238.95 84.3469C1238.95 74.0035 1236.4 66.7061 1231.29 62.4548C1226.23 58.1597 1217.45 56.0121 1204.97 56.0121C1200.34 56.0121 1195.15 56.5161 1189.39 57.5242C1183.8 58.4884 1178.87 59.6717 1174.59 61.0742Z" fill="white"/>
<path d="M1430.14 72.5055C1431.84 74.2167 1449.74 96.462 1432.7 122.985C1414.8 152.075 1365.38 184.588 1351.75 189.721C1324.49 200.844 1306.59 180.31 1304.89 177.743C1299.78 170.898 1298.92 170.043 1296.37 164.909C1295.52 165.765 1348.34 140.953 1367.09 109.296C1387.54 81.917 1389.24 28.8704 1367.09 18.6033C1373.91 22.0257 1389.24 31.4372 1403.73 44.271C1418.21 57.1049 1430.14 72.5055 1430.14 72.5055Z" fill="#F26E29"/>
<path d="M1375.61 93.8906C1387.54 65.6561 1384.98 27.1546 1367.09 19.4543C1350.05 11.754 1331.3 33.9993 1330.45 35.7105C1330.45 35.7105 1324.49 43.4108 1319.37 54.5335C1322.78 56.2446 1328.75 59.667 1328.75 59.667C1341.53 64.8005 1359.42 75.9232 1375.61 93.8906Z" fill="white"/>
</svg>
