<svg width="18" height="18" viewBox="0 0 18 18" fill="none" xmlns="http://www.w3.org/2000/svg">
<g clip-path="url(#clip0_4418_5509)">
<path d="M12.023 0.714844C11.1167 0.777531 10.0574 1.35765 9.44009 2.11309C8.87697 2.79839 8.41372 3.81626 8.59434 4.80544C9.58458 4.83626 10.6078 4.24232 11.2006 3.47414C11.7553 2.75908 12.1749 1.74759 12.023 0.714844Z" fill="white"/>
<path d="M15.6049 6.41095C14.7348 5.31977 13.5118 4.68652 12.3569 4.68652C10.8322 4.68652 10.1873 5.41646 9.12798 5.41646C8.03573 5.41646 7.20593 4.68865 5.88737 4.68865C4.59219 4.68865 3.21308 5.48021 2.33864 6.83382C1.10934 8.73994 1.31971 12.3237 3.31189 15.3763C4.02482 16.4685 4.97682 17.6968 6.22206 17.7074C7.33024 17.718 7.64261 16.9966 9.14392 16.9891C10.6452 16.9806 10.93 17.7169 12.036 17.7053C13.2823 17.6957 14.2864 16.3346 14.9993 15.2424C15.5104 14.4593 15.7006 14.0652 16.0969 13.1812C13.2143 12.0836 12.7521 7.9845 15.6049 6.41095Z" fill="white"/>
</g>
<defs>
<clipPath id="clip0_4418_5509">
<rect width="17" height="17" fill="white" transform="translate(0.335938 0.709961)"/>
</clipPath>
</defs>
</svg>
