<svg width="18" height="18" viewBox="0 0 18 18" fill="none" xmlns="http://www.w3.org/2000/svg">
<g clip-path="url(#clip0_4418_5521)">
<path d="M4.30408 0.984767C3.639 0.617163 2.8581 0.625662 2.19727 0.990079L9.94245 8.13499L12.5444 5.53307L4.30408 0.984767Z" fill="white"/>
<path d="M1.42639 1.71582C1.23728 2.02499 1.12891 2.37878 1.12891 2.75382V15.6582C1.12891 16.0216 1.22771 16.3679 1.4062 16.6707L9.19495 8.88198L1.42639 1.71582Z" fill="white"/>
<path d="M15.9915 7.43394L13.5096 6.06445L10.7207 8.8523L14.1386 12.0046L15.9925 10.9814C16.6597 10.6117 17.0592 9.94874 17.0592 9.20716C17.0582 8.46557 16.6597 7.80261 15.9915 7.43394Z" fill="white"/>
<path d="M9.97211 9.60547L2.16211 17.4155C2.50103 17.6088 2.87288 17.7108 3.24686 17.7108C3.60809 17.7108 3.97145 17.6195 4.30399 17.4357L13.1616 12.5474L9.97211 9.60547Z" fill="white"/>
</g>
<defs>
<clipPath id="clip0_4418_5521">
<rect width="17" height="17" fill="white" transform="translate(0.595703 0.709961)"/>
</clipPath>
</defs>
</svg>
