<svg width="79" height="80" viewBox="0 0 79 80" fill="none" xmlns="http://www.w3.org/2000/svg">
<g filter="url(#filter0_d_4418_5492)">
<path fill-rule="evenodd" clip-rule="evenodd" d="M77 37.5293C77 58.24 60.2107 75.0293 39.5 75.0293C18.7893 75.0293 2 58.24 2 37.5293C2 16.8186 18.7893 0.0292969 39.5 0.0292969C60.2107 0.0292969 77 16.8186 77 37.5293ZM39.5 67.9288C56.2892 67.9288 69.8995 54.3185 69.8995 37.5293C69.8995 20.7401 56.2892 7.12975 39.5 7.12975C22.7108 7.12975 9.10046 20.7401 9.10046 37.5293C9.10046 54.3185 22.7108 67.9288 39.5 67.9288Z" fill="white"/>
<path d="M40.1147 7.40625C23.1369 7.40625 9.37695 21.1662 9.37695 38.144C9.37695 55.1217 23.1369 68.8817 40.1147 68.8817C57.0924 68.8817 70.8524 55.1217 70.8524 38.144C70.8524 21.1662 57.0924 7.40625 40.1147 7.40625Z" fill="#52C41A"/>
<path d="M30.6663 37.9414L34.333 41.4414L37.9996 44.9414L41.6663 41.4414L45.333 37.9414L49 34.4708L51 32.4708M58 37.9414C58 28.5523 50.3891 20.9414 41 20.9414C31.6109 20.9414 24 28.5523 24 37.9414C24 47.3305 31.6109 54.9414 41 54.9414C50.3891 54.9414 58 47.3305 58 37.9414Z" stroke="white" stroke-width="1.5" stroke-miterlimit="10" stroke-linecap="round" stroke-linejoin="round"/>
</g>
<defs>
<filter id="filter0_d_4418_5492" x="-1" y="0.0292969" width="80" height="80.9707" filterUnits="userSpaceOnUse" color-interpolation-filters="sRGB">
<feFlood flood-opacity="0" result="BackgroundImageFix"/>
<feColorMatrix in="SourceAlpha" type="matrix" values="0 0 0 0 0 0 0 0 0 0 0 0 0 0 0 0 0 0 127 0" result="hardAlpha"/>
<feOffset dy="2"/>
<feGaussianBlur stdDeviation="1"/>
<feComposite in2="hardAlpha" operator="out"/>
<feColorMatrix type="matrix" values="0 0 0 0 0 0 0 0 0 0 0 0 0 0 0 0 0 0 0.12 0"/>
<feBlend mode="normal" in2="BackgroundImageFix" result="effect1_dropShadow_4418_5492"/>
<feBlend mode="normal" in="SourceGraphic" in2="effect1_dropShadow_4418_5492" result="shape"/>
</filter>
</defs>
</svg>
