<svg width="16" height="16" viewBox="0 0 16 16" fill="none" xmlns="http://www.w3.org/2000/svg">
<path d="M9.1272 1.30859C9.1272 0.790039 8.70825 0.371094 8.1897 0.371094C7.67114 0.371094 7.2522 0.790039 7.2522 1.30859V8.41895L5.10181 6.26855C4.7356 5.90234 4.14087 5.90234 3.77466 6.26855C3.40845 6.63477 3.40845 7.22949 3.77466 7.5957L7.52466 11.3457C7.89087 11.7119 8.4856 11.7119 8.85181 11.3457L12.6018 7.5957C12.968 7.22949 12.968 6.63477 12.6018 6.26855C12.2356 5.90234 11.6409 5.90234 11.2747 6.26855L9.1272 8.41895V1.30859Z" fill="#34B1CF"/>
<path d="M2.64286 10.5159V12.5613C2.64286 13.127 3.12165 13.5841 3.71429 13.5841H12.2857C12.8783 13.5841 13.3571 13.127 13.3571 12.5613V10.5159C13.3571 9.95019 13.8359 9.49316 14.4286 9.49316C15.0212 9.49316 15.5 9.95019 15.5 10.5159V12.5613C15.5 14.2552 14.0603 15.6295 12.2857 15.6295H3.71429C1.93973 15.6295 0.5 14.2552 0.5 12.5613L0.5 10.5159C0.5 9.9502 0.978795 9.49317 1.57143 9.49317C2.16406 9.49316 2.64286 9.9502 2.64286 10.5159Z" fill="#34B1CF"/>
</svg>
