<svg width="13" height="13" viewBox="0 0 13 13" fill="none" xmlns="http://www.w3.org/2000/svg">
<g clip-path="url(#clip0_1965_8252)">
<path d="M8.55235 0.858887C7.92163 0.902512 7.18444 1.30623 6.75484 1.83196C6.36295 2.30888 6.04057 3.01724 6.16627 3.70563C6.8554 3.72707 7.56745 3.31374 7.98005 2.77914C8.36602 2.28152 8.65809 1.5776 8.55235 0.858887Z" fill="white"/>
<path d="M11.0461 4.82312C10.4406 4.06374 9.5895 3.62305 8.78576 3.62305C7.7247 3.62305 7.27587 4.13102 6.53868 4.13102C5.77856 4.13102 5.20108 3.62453 4.28347 3.62453C3.38212 3.62453 2.42236 4.17539 1.81382 5.1174C0.958323 6.44391 1.10473 8.93795 2.49113 11.0623C2.98727 11.8224 3.64979 12.6772 4.51638 12.6846C5.28759 12.692 5.50498 12.1899 6.54977 12.1847C7.59456 12.1788 7.79272 12.6912 8.56245 12.6831C9.42978 12.6764 10.1285 11.7292 10.6247 10.9691C10.9803 10.4242 11.1127 10.1499 11.3885 9.53466C9.38246 8.77084 9.06082 5.91819 11.0461 4.82312Z" fill="white"/>
</g>
<defs>
<clipPath id="clip0_1965_8252">
<rect width="11.8307" height="11.8307" fill="white" transform="translate(0.419922 0.855469)"/>
</clipPath>
</defs>
</svg>
