<svg width="20" height="20" viewBox="0 0 20 20" fill="none" xmlns="http://www.w3.org/2000/svg">
<g clip-path="url(#clip0_2001_709)">
<path d="M10 20C15.5234 20 20 15.5234 20 10C20 4.47656 15.5234 0 10 0C4.47656 0 0 4.47656 0 10C0 15.5234 4.47656 20 10 20ZM4.11719 9.11719L8.14453 5.08984C8.63281 4.60156 9.42383 4.60156 9.91211 5.08984C10.4004 5.57812 10.4004 6.36914 9.91211 6.85742L8.01563 8.75L15 8.75C15.6914 8.75 16.25 9.30859 16.25 10C16.25 10.6914 15.691 11.25 15 11.25L8.01563 11.25L9.94453 13.1789C10.4328 13.6672 10.4328 14.4582 9.94453 14.9465C9.45625 15.4348 8.66523 15.4348 8.17695 14.9465L4.14961 10.9191C3.80469 10.5742 3.75 10.1914 3.75 10C3.75 9.80859 3.80469 9.42578 4.11719 9.11719Z" fill="#F26E29"/>
</g>
<defs>
<clipPath id="clip0_2001_709">
<rect width="20" height="20" fill="white" transform="matrix(-1 0 0 -1 20 20)"/>
</clipPath>
</defs>
</svg>
