<svg width="52" height="44" viewBox="0 0 52 44" fill="none" xmlns="http://www.w3.org/2000/svg">
<path d="M15.4606 3.64821L14.4352 6.64286H7.07052C3.59029 6.64286 0.760742 9.39754 0.760742 12.7857V37.3571C0.760742 40.7453 3.59029 43.5 7.07052 43.5H44.9292C48.4095 43.5 51.239 40.7453 51.239 37.3571V12.7857C51.239 9.39754 48.4095 6.64286 44.9292 6.64286H37.5645L36.5392 3.64821C35.8983 1.76696 34.0941 0.5 32.0533 0.5H19.9464C17.9056 0.5 16.1014 1.76696 15.4606 3.64821ZM25.9999 15.8571C28.5101 15.8571 30.9174 16.8279 32.6924 18.5559C34.4674 20.284 35.4645 22.6276 35.4645 25.0714C35.4645 27.5152 34.4674 29.8589 32.6924 31.5869C30.9174 33.3149 28.5101 34.2857 25.9999 34.2857C23.4897 34.2857 21.0823 33.3149 19.3073 31.5869C17.5324 29.8589 16.5352 27.5152 16.5352 25.0714C16.5352 22.6276 17.5324 20.284 19.3073 18.5559C21.0823 16.8279 23.4897 15.8571 25.9999 15.8571Z" fill="#32335C"/>
</svg>
