<svg width="14" height="13" viewBox="0 0 14 13" fill="none" xmlns="http://www.w3.org/2000/svg">
<path d="M7.09681 12.9304C8.7492 12.9304 10.3339 12.274 11.5023 11.1056C12.6708 9.93719 13.3272 8.35247 13.3272 6.70008C13.3272 5.04769 12.6708 3.46297 11.5023 2.29456C10.3339 1.12614 8.7492 0.469727 7.09681 0.469727C5.44442 0.469727 3.8597 1.12614 2.69128 2.29456C1.52287 3.46297 0.866455 5.04769 0.866455 6.70008C0.866455 8.35247 1.52287 9.93719 2.69128 11.1056C3.8597 12.274 5.44442 12.9304 7.09681 12.9304ZM9.84693 5.55623L6.73175 8.6714C6.50298 8.90018 6.13305 8.90018 5.90671 8.6714L4.34913 7.11382C4.12036 6.88505 4.12036 6.51512 4.34913 6.28878C4.5779 6.06244 4.94782 6.06001 5.17416 6.28878L6.31802 7.43263L9.01946 4.72876C9.24823 4.49999 9.61816 4.49999 9.84449 4.72876C10.0708 4.95753 10.0733 5.32746 9.84449 5.55379L9.84693 5.55623Z" fill="#32335C"/>
</svg>
