<svg width="43" height="43" viewBox="0 0 43 43" fill="none" xmlns="http://www.w3.org/2000/svg">
<path d="M21.5 43C27.2022 43 32.6708 40.7348 36.7028 36.7028C40.7348 32.6708 43 27.2022 43 21.5C43 15.7978 40.7348 10.3292 36.7028 6.2972C32.6708 2.26517 27.2022 0 21.5 0C15.7978 0 10.3292 2.26517 6.2972 6.2972C2.26517 10.3292 0 15.7978 0 21.5C0 27.2022 2.26517 32.6708 6.2972 36.7028C10.3292 40.7348 15.7978 43 21.5 43ZM14.6973 14.6973C15.4867 13.9078 16.7633 13.9078 17.5443 14.6973L21.4916 18.6445L25.4389 14.6973C26.2283 13.9078 27.5049 13.9078 28.2859 14.6973C29.067 15.4867 29.0754 16.7633 28.2859 17.5443L24.3387 21.4916L28.2859 25.4389C29.0754 26.2283 29.0754 27.5049 28.2859 28.2859C27.4965 29.067 26.2199 29.0754 25.4389 28.2859L21.4916 24.3387L17.5443 28.2859C16.7549 29.0754 15.4783 29.0754 14.6973 28.2859C13.9162 27.4965 13.9078 26.2199 14.6973 25.4389L18.6445 21.4916L14.6973 17.5443C13.9078 16.7549 13.9078 15.4783 14.6973 14.6973Z" fill="#F26E29"/>
</svg>
