<svg width="19" height="20" viewBox="0 0 19 20" fill="none" xmlns="http://www.w3.org/2000/svg">
<path d="M9.5 19.5C12.0196 19.5 14.4359 18.4991 16.2175 16.7175C17.9991 14.9359 19 12.5196 19 10C19 7.48044 17.9991 5.06408 16.2175 3.28249C14.4359 1.50089 12.0196 0.5 9.5 0.5C6.98044 0.5 4.56408 1.50089 2.78249 3.28249C1.00089 5.06408 0 7.48044 0 10C0 12.5196 1.00089 14.9359 2.78249 16.7175C4.56408 18.4991 6.98044 19.5 9.5 19.5ZM6.49414 6.99414C6.84297 6.64531 7.40703 6.64531 7.75215 6.99414L9.49629 8.73828L11.2404 6.99414C11.5893 6.64531 12.1533 6.64531 12.4984 6.99414C12.8436 7.34297 12.8473 7.90703 12.4984 8.25215L10.7543 9.99629L12.4984 11.7404C12.8473 12.0893 12.8473 12.6533 12.4984 12.9984C12.1496 13.3436 11.5855 13.3473 11.2404 12.9984L9.49629 11.2543L7.75215 12.9984C7.40332 13.3473 6.83926 13.3473 6.49414 12.9984C6.14902 12.6496 6.14531 12.0855 6.49414 11.7404L8.23828 9.99629L6.49414 8.25215C6.14531 7.90332 6.14531 7.33926 6.49414 6.99414Z" fill="#32335C"/>
</svg>
