<svg width="90" height="90" viewBox="0 0 90 90" fill="none" xmlns="http://www.w3.org/2000/svg">
<circle cx="45" cy="45" r="45" fill="white"/>
<g clip-path="url(#clip0_1099_14160)">
<path d="M0 45C0 20.1445 20.1445 0 45 0C69.8555 0 90 20.1445 90 45C90 69.8555 69.8555 90 45 90C20.1445 90 0 69.8555 0 45ZM65.3555 37.2305C67.2715 35.3145 67.2715 32.1855 65.3555 30.2695C63.4394 28.3535 60.3106 28.3535 58.3945 30.2695L39.375 49.2891L31.6055 41.5195C29.6895 39.6035 26.5605 39.6035 24.6445 41.5195C22.7285 43.4355 22.7285 46.5644 24.6445 48.4805L35.8945 59.7305C37.8105 61.6465 40.9395 61.6465 42.8555 59.7305L65.3555 37.2305Z" fill="#52C41A"/>
</g>
<defs>
<clipPath id="clip0_1099_14160">
<rect width="90" height="90" fill="white"/>
</clipPath>
</defs>
</svg>
