<svg width="29" height="29" viewBox="0 0 29 29" fill="none" xmlns="http://www.w3.org/2000/svg">
<path d="M16.5225 2.73291C16.5225 1.76494 15.7404 0.98291 14.7725 0.98291C13.8045 0.98291 13.0225 1.76494 13.0225 2.73291V16.0056L9.0084 11.9915C8.32481 11.3079 7.21465 11.3079 6.53105 11.9915C5.84746 12.6751 5.84746 13.7853 6.53105 14.4688L13.5311 21.4688C14.2146 22.1524 15.3248 22.1524 16.0084 21.4688L23.0084 14.4688C23.692 13.7853 23.692 12.6751 23.0084 11.9915C22.3248 11.3079 21.2146 11.3079 20.5311 11.9915L16.5225 16.0056V2.73291ZM4.27246 20.2329C2.34199 20.2329 0.772461 21.8024 0.772461 23.7329V25.4829C0.772461 27.4134 2.34199 28.9829 4.27246 28.9829H25.2725C27.2029 28.9829 28.7725 27.4134 28.7725 25.4829V23.7329C28.7725 21.8024 27.2029 20.2329 25.2725 20.2329H19.7217L17.2443 22.7103C15.8771 24.0774 13.6623 24.0774 12.2951 22.7103L9.82324 20.2329H4.27246ZM24.3975 23.2954C24.7456 23.2954 25.0794 23.4337 25.3255 23.6798C25.5717 23.926 25.71 24.2598 25.71 24.6079C25.71 24.956 25.5717 25.2898 25.3255 25.536C25.0794 25.7821 24.7456 25.9204 24.3975 25.9204C24.0494 25.9204 23.7155 25.7821 23.4694 25.536C23.2232 25.2898 23.085 24.956 23.085 24.6079C23.085 24.2598 23.2232 23.926 23.4694 23.6798C23.7155 23.4337 24.0494 23.2954 24.3975 23.2954Z" fill="#32335C"/>
</svg>
