<svg width="15" height="17" viewBox="0 0 15 17" fill="none" xmlns="http://www.w3.org/2000/svg">
<path d="M8.6272 1.80811C8.6272 1.28955 8.20825 0.870605 7.6897 0.870605C7.17114 0.870605 6.7522 1.28955 6.7522 1.80811V8.91846L4.60181 6.76807C4.2356 6.40186 3.64087 6.40186 3.27466 6.76807C2.90845 7.13428 2.90845 7.729 3.27466 8.09521L7.02466 11.8452C7.39087 12.2114 7.9856 12.2114 8.35181 11.8452L12.1018 8.09521C12.468 7.729 12.468 7.13428 12.1018 6.76807C11.7356 6.40186 11.1409 6.40186 10.7747 6.76807L8.6272 8.91846V1.80811Z" fill="#32335C"/>
<path d="M2.14286 11.0159V13.0613C2.14286 13.627 2.62165 14.0841 3.21429 14.0841H11.7857C12.3783 14.0841 12.8571 13.627 12.8571 13.0613V11.0159C12.8571 10.4502 13.3359 9.99316 13.9286 9.99316C14.5212 9.99316 15 10.4502 15 11.0159V13.0613C15 14.7552 13.5603 16.1295 11.7857 16.1295H3.21429C1.43973 16.1295 1.63452e-07 14.7552 8.94097e-08 13.0613L0 11.0159C-2.47274e-08 10.4502 0.478795 9.99317 1.07143 9.99317C1.66406 9.99316 2.14286 10.4502 2.14286 11.0159Z" fill="#32335C"/>
</svg>
