<svg width="37" height="27" viewBox="0 0 37 27" fill="none" xmlns="http://www.w3.org/2000/svg">
<path d="M29.6144 20.4208C29.4035 20.7246 25.7077 26.0017 19.0725 26.6218C12.2514 27.2419 13.8016 23.8686 6.98044 22.9012C3.69387 22.4361 1.95137 22.9942 1.31886 23.4035C1.07993 23.5594 0.761518 23.5075 0.58446 23.2838C0.407402 23.0601 0.430071 22.7382 0.636746 22.5415C1.87696 21.3757 4.89688 19.472 7.9106 17.3202L20.9329 12.4214L29.6144 20.4208Z" fill="#32335C"/>
<path d="M25.8936 2.27088C25.8936 1.97323 25.9557 1.73759 25.9557 1.60736C25.9557 -0.37698 22.4582 -0.618822 22.235 1.41513L22.1792 1.93602L25.8936 2.27088Z" fill="#32335C"/>
<path d="M36.5343 15.5906C36.5343 21.6801 35.3499 20.8492 31.9083 20.5515C27.5676 20.1732 27.7474 20.8616 15.9715 17.916C13.4911 17.2959 9.99992 16.8743 7.91016 17.2959C7.91016 17.2959 8.38144 11.4359 11.2463 7.33702C15.1096 1.80566 24.0329 1.80566 24.0329 1.80566C26.4352 2.21827 28.7285 3.11491 30.7735 4.44112C34.6864 6.98976 36.5343 10.9088 36.5343 15.5906Z" fill="#32335C"/>
<path d="M24.0329 1.80566C15.308 3.35593 13.764 14.9023 13.5283 17.4386C11.6747 17.0939 9.77773 17.0499 7.91016 17.3083C7.91016 17.3083 8.38144 11.4483 11.2463 7.34942C15.1096 1.80566 24.0329 1.80566 24.0329 1.80566Z" fill="#32335C"/>
<path d="M26.5137 20.1794C21.4474 19.5593 16.592 17.8912 13.5225 17.4386C13.7643 14.9023 15.3084 3.35593 24.0333 1.80566C30.8545 5.33407 27.1338 18.1579 26.5137 20.1794Z" fill="#32335C"/>
</svg>
