<svg width="12" height="13" viewBox="0 0 12 13" fill="none" xmlns="http://www.w3.org/2000/svg">
<g clip-path="url(#clip0_1965_8264)">
<path d="M2.63806 0.495845C2.17521 0.240021 1.63177 0.245936 1.17188 0.499542L6.56193 5.47185L8.37266 3.66111L2.63806 0.495845Z" fill="white"/>
<path d="M0.63476 1.00488C0.503151 1.22004 0.427734 1.46625 0.427734 1.72725V10.7077C0.427734 10.9606 0.496496 11.2016 0.620712 11.4123L6.04108 5.99198L0.63476 1.00488Z" fill="white"/>
<path d="M10.7716 4.98431L9.04438 4.03125L7.10352 5.97138L9.48209 8.16511L10.7723 7.45309C11.2366 7.19579 11.5146 6.73442 11.5146 6.21833C11.5139 5.70224 11.2366 5.24087 10.7716 4.98431Z" fill="white"/>
<path d="M6.58164 6.49512L1.14648 11.9303C1.38235 12.0648 1.64113 12.1358 1.90139 12.1358C2.15278 12.1358 2.40564 12.0722 2.63707 11.9443L8.80125 8.54245L6.58164 6.49512Z" fill="white"/>
</g>
<defs>
<clipPath id="clip0_1965_8264">
<rect width="11.8307" height="11.8307" fill="white" transform="translate(0.0566406 0.304688)"/>
</clipPath>
</defs>
</svg>
