<svg width="20" height="20" viewBox="0 0 20 20" fill="none" xmlns="http://www.w3.org/2000/svg">
<path d="M10.499 19.9092C13.0186 19.9092 15.4349 18.9083 17.2165 17.1267C18.9981 15.3451 19.999 12.9287 19.999 10.4092C19.999 7.88962 18.9981 5.47326 17.2165 3.69167C15.4349 1.91007 13.0186 0.90918 10.499 0.90918C7.97947 0.90918 5.5631 1.91007 3.78151 3.69167C1.99991 5.47326 0.999023 7.88962 0.999023 10.4092C0.999023 12.9287 1.99991 15.3451 3.78151 17.1267C5.5631 18.9083 7.97947 19.9092 10.499 19.9092ZM9.01465 13.3779H9.90527V11.0029H9.01465C8.52109 11.0029 8.12402 10.6059 8.12402 10.1123C8.12402 9.61875 8.52109 9.22168 9.01465 9.22168H10.7959C11.2895 9.22168 11.6865 9.61875 11.6865 10.1123V13.3779H11.9834C12.477 13.3779 12.874 13.775 12.874 14.2686C12.874 14.7621 12.477 15.1592 11.9834 15.1592H9.01465C8.52109 15.1592 8.12402 14.7621 8.12402 14.2686C8.12402 13.775 8.52109 13.3779 9.01465 13.3779ZM10.499 5.65918C10.814 5.65918 11.116 5.78429 11.3387 6.00699C11.5614 6.22969 11.6865 6.53173 11.6865 6.84668C11.6865 7.16162 11.5614 7.46367 11.3387 7.68637C11.116 7.90907 10.814 8.03418 10.499 8.03418C10.1841 8.03418 9.88203 7.90907 9.65933 7.68637C9.43664 7.46367 9.31152 7.16162 9.31152 6.84668C9.31152 6.53173 9.43664 6.22969 9.65933 6.00699C9.88203 5.78429 10.1841 5.65918 10.499 5.65918Z" fill="#F26E29"/>
</svg>
