<svg width="119" height="31" viewBox="0 0 119 31" fill="none" xmlns="http://www.w3.org/2000/svg">
<path d="M33.3581 5.31448C33.8451 5.19089 35.0626 5.19089 36.1583 5.19089C38.715 5.19089 40.4195 6.05603 40.4195 8.15707C40.2977 10.6289 37.8628 12.112 34.2104 12.112H32.8712C31.8972 12.112 32.1407 10.8761 32.1407 10.8761L33.3581 5.31448ZM45.5329 20.3926C45.5329 16.1905 42.6109 14.213 40.176 14.0894C43.2197 13.5951 47.2373 11.3704 47.2373 7.16834C47.2373 2.71908 42.8544 0.37085 36.1583 0.37085C33.1146 0.37085 30.1927 0.618032 27.636 1.1124L22.8879 22.4936C22.8879 22.4936 21.1834 28.0552 25.9316 29.1675C27.2708 29.5383 28.123 29.6619 29.584 29.6619C41.8804 30.4034 45.5329 24.7182 45.5329 20.3926ZM29.3405 23.6059L30.9232 16.5612H33.1146C36.1583 16.5612 38.715 17.4264 38.5933 20.269C38.4715 23.4823 35.3061 24.8418 31.6537 24.8418C31.0449 24.8418 30.558 24.8418 30.071 24.8418C29.097 24.7182 29.3405 23.6059 29.3405 23.6059Z" fill="#002B76"/>
<path d="M84.3689 5.56161C84.9777 5.43802 85.8299 5.43802 87.1691 5.43802C89.6041 5.43802 91.6738 6.17956 91.6738 9.14574C91.6738 12.2355 89.3606 15.2017 84.8559 15.2017C84.6124 15.2017 84.2472 15.2017 84.0037 15.2017C82.0557 15.2017 82.5427 13.4714 82.5427 13.4714L84.3689 5.56161ZM75.8466 29.7854C76.8206 29.7854 78.7686 29.4146 79.3773 26.4485C79.8643 24.1002 80.7165 20.1453 80.7165 20.1453C81.447 20.1453 82.2992 20.2689 83.3949 20.2689C93.987 20.2689 97.7611 13.3478 97.7611 8.65138C97.7611 3.46057 94.2305 0.617976 86.5604 0.494385C83.395 0.494385 80.7165 0.617976 78.1598 1.23593L71.9507 29.7854H75.8466Z" fill="#002B76"/>
<path d="M56.2514 17.1791C56.2514 12.4827 59.1733 5.56159 65.9912 5.56159C67.8174 5.56159 70.9828 6.05595 72.809 7.66263C72.809 7.66263 73.5395 5.31441 73.6612 4.32568C73.9047 3.33695 73.5395 1.73027 70.6175 0.865134C68.6696 0.24718 67.2086 0 65.1389 0C54.5469 0 48.9465 8.89854 48.9465 17.6735C48.9465 27.0664 55.1557 30.1562 61.3648 30.1562C63.678 30.1562 65.1389 29.909 66.4782 29.4146C68.1826 28.7967 68.5479 27.19 68.5479 27.19L69.6436 22.3699C66.9651 24.3474 65.0172 24.7182 63.191 24.7182C58.9298 24.471 56.2514 21.6284 56.2514 17.1791Z" fill="#002B76"/>
<path d="M19.1158 10.2579C19.3593 10.5051 21.916 13.7184 19.481 17.5498C16.9243 21.7518 9.86298 26.4483 7.91503 27.1898C4.01911 28.7965 1.46242 25.8303 1.21893 25.4596C0.488445 24.4708 0.366697 24.3473 0.0014557 23.6057C-0.120292 23.7293 7.42804 20.1452 10.1065 15.5723C13.0284 11.6174 13.2719 3.95477 10.1065 2.47168C11.0805 2.96604 13.2719 4.32554 15.3416 6.1794C17.4113 8.03327 19.1158 10.2579 19.1158 10.2579Z" fill="#F26E29"/>
<path d="M11.3269 13.3477C13.0314 9.26924 12.6661 3.70765 10.1094 2.59534C7.6745 1.48302 4.99606 4.69638 4.87431 4.94356C4.87431 4.94356 4.02208 6.05588 3.2916 7.66256C3.77859 7.90974 4.63082 8.4041 4.63082 8.4041C6.45703 9.14565 9.01372 10.7523 11.3269 13.3477Z" fill="#002B76"/>
<path d="M116.875 10.2579C117.118 10.5051 119.675 13.7184 117.24 17.5498C114.683 21.7518 107.622 26.4483 105.674 27.1898C101.778 28.7965 99.2215 25.8303 98.9781 25.4596C98.2476 24.4708 98.1258 24.3473 97.7606 23.6057C97.6388 23.7293 105.187 20.1452 107.866 15.5723C110.788 11.6174 111.031 3.95477 107.866 2.47168C108.84 2.96604 111.031 4.32554 113.101 6.1794C115.17 8.03327 116.875 10.2579 116.875 10.2579Z" fill="#F26E29"/>
<path d="M109.079 13.3477C110.784 9.26924 110.419 3.70765 107.862 2.59534C105.427 1.48302 102.748 4.69638 102.627 4.94356C102.627 4.94356 101.774 6.05588 101.044 7.66256C101.531 7.90974 102.383 8.4041 102.383 8.4041C104.209 9.14565 106.766 10.7523 109.079 13.3477Z" fill="#002B76"/>
</svg>
