<svg width="43" height="27" viewBox="0 0 43 27" fill="none" xmlns="http://www.w3.org/2000/svg">
<path d="M21.3546 13.6976C24.8828 13.6976 27.7422 10.8377 27.7422 7.30999C27.7422 3.78232 24.8828 0.922363 21.3546 0.922363C17.8264 0.922363 14.967 3.78232 14.967 7.30999C14.967 10.8377 17.8264 13.6976 21.3546 13.6976ZM23.8847 16.093H18.8245C14.0473 16.093 10.1763 19.9655 10.1763 24.7412C10.1763 25.6994 10.9508 26.4729 11.9059 26.4729H30.8013C31.7595 26.4729 32.533 25.6994 32.533 24.7412C32.533 19.9655 28.6605 16.093 23.8847 16.093ZM34.0849 16.8914H30.3996C32.6926 18.7728 34.1299 21.5873 34.1299 24.7412C34.1299 25.38 33.9402 25.9688 33.6308 26.4729H40.5175C41.4008 26.4729 42.1144 25.7543 42.1144 24.831C42.1144 20.4645 38.5413 16.8914 34.0849 16.8914ZM31.7345 13.6976C34.8235 13.6976 37.3237 11.1975 37.3237 8.10844C37.3237 5.01942 34.8235 2.51927 31.7345 2.51927C30.4814 2.51927 29.3371 2.94619 28.405 3.64259C28.9798 4.74645 29.3391 5.98256 29.3391 7.30999C29.3391 9.08255 28.7438 10.7104 27.7627 12.0363C28.7752 13.0588 30.1775 13.6976 31.7345 13.6976Z" fill="#32335C"/>
<path d="M21.6449 13.6976C18.1167 13.6976 15.2573 10.8377 15.2573 7.30999C15.2573 3.78232 18.1167 0.922363 21.6449 0.922363C25.1731 0.922363 28.0325 3.78232 28.0325 7.30999C28.0325 10.8377 25.1731 13.6976 21.6449 13.6976ZM19.1148 16.093H24.175C28.9522 16.093 32.8232 19.9655 32.8232 24.7412C32.8232 25.6994 32.0487 26.4729 31.0936 26.4729H12.1982C11.2401 26.4729 10.4666 25.6994 10.4666 24.7412C10.4666 19.9655 14.3391 16.093 19.1148 16.093ZM8.91457 16.8914H12.5999C10.3069 18.7728 8.86965 21.5873 8.86965 24.7412C8.86965 25.38 9.05929 25.9688 9.36869 26.4729H2.48203C1.59874 26.4729 0.885124 25.7543 0.885124 24.831C0.885124 20.4645 4.4582 16.8914 8.91457 16.8914ZM11.265 13.6976C8.176 13.6976 5.67584 11.1975 5.67584 8.10844C5.67584 5.01942 8.176 2.51927 11.265 2.51927C12.5181 2.51927 13.6624 2.94619 14.5946 3.64259C14.0197 4.74645 13.6604 5.98256 13.6604 7.30999C13.6604 9.08255 14.2557 10.7104 15.2368 12.0363C14.2243 13.0588 12.822 13.6976 11.265 13.6976Z" fill="#32335C"/>
</svg>
