<svg width="33" height="35" viewBox="0 0 33 35" fill="none" xmlns="http://www.w3.org/2000/svg">
<path d="M1.51123 10.7623V2.14795H10.1256" stroke="#203864" stroke-width="2.75659" stroke-linecap="round" stroke-linejoin="round"/>
<path d="M22.8749 2.14795L31.4893 2.14795L31.4893 10.7623" stroke="#203864" stroke-width="2.75659" stroke-linecap="round" stroke-linejoin="round"/>
<path d="M31.4893 24.7177L31.4893 33.332L22.8749 33.332" stroke="#203864" stroke-width="2.75659" stroke-linecap="round" stroke-linejoin="round"/>
<path d="M10.1256 33.332L1.51123 33.332L1.51123 24.7177" stroke="#203864" stroke-width="2.75659" stroke-linecap="round" stroke-linejoin="round"/>
<path fill-rule="evenodd" clip-rule="evenodd" d="M16.4145 27.8187C22.2663 27.8187 27.0101 23.0749 27.0101 17.2231C27.0101 11.3713 22.2663 6.62744 16.4145 6.62744C10.5627 6.62744 5.81885 11.3713 5.81885 17.2231C5.81885 23.0749 10.5627 27.8187 16.4145 27.8187ZM12.7967 16.2755C13.7007 16.2755 14.4335 15.5427 14.4335 14.6388C14.4335 13.7348 13.7007 13.0021 12.7967 13.0021C11.8928 13.0021 11.16 13.7348 11.16 14.6388C11.16 15.5427 11.8928 16.2755 12.7967 16.2755ZM21.6696 14.6388C21.6696 15.5427 20.9368 16.2755 20.0329 16.2755C19.129 16.2755 18.3962 15.5427 18.3962 14.6388C18.3962 13.7348 19.129 13.0021 20.0329 13.0021C20.9368 13.0021 21.6696 13.7348 21.6696 14.6388ZM12.3183 19.4679C11.8929 19.0189 11.1841 18.9997 10.7351 19.4251C10.2861 19.8505 10.267 20.5593 10.6923 21.0082C11.5977 21.9639 13.2247 23.0953 15.2464 23.4297C17.3365 23.7755 19.7364 23.2473 22.0176 21.0435C22.4624 20.6137 22.4746 19.9048 22.0449 19.46C21.6152 19.0152 20.9062 19.0029 20.4614 19.4327C18.6766 21.1569 16.9847 21.4471 15.6119 21.22C14.1706 20.9816 12.9635 20.149 12.3183 19.4679Z" fill="#203864"/>
</svg>
