<svg width="37" height="31" viewBox="0 0 37 31" fill="none" xmlns="http://www.w3.org/2000/svg">
<path d="M18.5072 23.0934C17.0952 23.0934 15.6765 23.0865 14.2645 23.1002C14.0201 23.1002 13.8776 23.0386 13.7893 22.7855C13.1241 20.9248 12.1262 19.2488 10.8636 17.7438C9.41085 16.0199 8.54195 14.0429 8.37903 11.7991C8.20253 9.33638 8.83385 7.05837 10.2662 5.03348C11.8343 2.79651 13.9862 1.4215 16.6472 0.94948C19.8852 0.374847 22.7906 1.18207 25.2684 3.39851C27.2234 5.14977 28.3367 7.35937 28.6014 9.99311C28.8933 12.9278 28.0108 15.4863 26.1508 17.737C24.8882 19.2625 23.8835 20.9385 23.2115 22.8129C23.13 23.0386 23.0079 23.1002 22.7838 23.1002C21.3515 23.0934 19.926 23.0934 18.5072 23.0934ZM11.9565 10.7935C11.9565 10.8277 11.9565 10.8619 11.9565 10.8961C11.9565 11.5323 12.3434 11.977 12.9136 11.9906C13.4703 12.0043 13.8911 11.5528 13.9183 10.9303C13.9319 10.7046 13.9522 10.4788 13.9862 10.2531C14.1695 9.18588 14.6514 8.28289 15.4592 7.55776C16.3281 6.79158 17.3464 6.42217 18.4936 6.38113C19.0842 6.36061 19.5051 5.90911 19.4847 5.34816C19.4644 4.81457 19.0163 4.39728 18.4393 4.41096C18.0252 4.42464 17.6044 4.47253 17.1971 4.54778C14.3052 5.08136 12.0379 7.72194 11.9565 10.7935Z" fill="#32335C"/>
<path d="M18.5273 25.1244C19.8986 25.1244 21.263 25.1244 22.6343 25.1244C23.0891 25.1244 23.0891 25.1244 23.0891 25.6033C23.0891 26.1369 23.123 26.6773 23.0755 27.2109C23.0416 27.5598 22.9533 27.936 22.7904 28.2439C22.4917 28.7912 22.1387 29.3111 21.7721 29.8104C21.4056 30.3167 20.8761 30.5903 20.2651 30.604C19.0908 30.6314 17.9164 30.6314 16.7352 30.604C16.1175 30.5903 15.5948 30.303 15.2282 29.8036C14.8616 29.2974 14.5086 28.7775 14.21 28.2302C14.0538 27.9429 13.9588 27.594 13.9316 27.2656C13.8841 26.6773 13.9316 26.0822 13.9113 25.487C13.9045 25.1928 14.0131 25.1176 14.2846 25.1244C15.7034 25.1313 17.1154 25.1244 18.5273 25.1244Z" fill="#32335C"/>
<path d="M3.15159 13.3043C2.62211 13.3043 2.08583 13.2907 1.55634 13.3043C0.619551 13.3317 0.076485 12.7707 0.00860182 12.1003C-0.072858 11.2794 0.395536 10.6638 1.31875 10.609C2.60174 10.5338 3.89152 10.5611 5.17451 10.6364C5.92802 10.6774 6.43035 11.341 6.38283 11.9909C6.32853 12.7434 5.73794 13.2907 4.9505 13.3043C4.35313 13.3112 3.74897 13.3043 3.15159 13.3043Z" fill="#32335C"/>
<path d="M33.8222 13.3045C33.2249 13.3045 32.6275 13.3113 32.0233 13.3045C30.9168 13.2839 30.272 12.1484 30.849 11.218C31.1544 10.7255 31.6432 10.5818 32.1591 10.575C33.2656 10.5544 34.3721 10.5544 35.4786 10.575C36.3203 10.5886 36.9245 11.0743 36.9924 11.7584C37.0806 12.5999 36.4697 13.2839 35.6144 13.3045C35.6008 13.3045 35.594 13.3045 35.5804 13.3045C35.0034 13.3045 34.4128 13.3045 33.8222 13.3045Z" fill="#32335C"/>
<path d="M3.59323 1.89355C3.84439 1.98249 4.11593 2.03721 4.34673 2.16719C5.41249 2.76919 6.46468 3.38486 7.51687 4.00738C8.07352 4.33574 8.29753 4.9309 8.1414 5.5329C7.99884 6.08017 7.5033 6.48378 6.89235 6.51114C6.72264 6.51798 6.51899 6.47694 6.36965 6.39485C5.18169 5.7176 3.99374 5.04035 2.82614 4.3289C2.3306 4.02106 2.17447 3.38486 2.36454 2.84444C2.55461 2.27664 3.00943 1.94144 3.59323 1.89355Z" fill="#32335C"/>
<path d="M34.6979 20.4665C34.7047 21.4584 33.8222 22.1357 32.994 21.8484C32.6342 21.7252 32.3084 21.5132 31.9758 21.3216C31.1272 20.8291 30.2651 20.3434 29.4369 19.8166C28.8124 19.4199 28.6563 18.6537 29.0229 18.0175C29.3623 17.4292 30.1361 17.1829 30.7675 17.5386C31.9147 18.1748 33.0415 18.8452 34.1684 19.5225C34.5418 19.7482 34.6572 20.1518 34.6979 20.4665Z" fill="#32335C"/>
<path d="M3.6132 21.9855C2.99546 21.9239 2.54743 21.6024 2.35736 21.0414C2.16728 20.4805 2.32342 19.858 2.81217 19.557C3.92546 18.866 5.05911 18.1956 6.20633 17.5594C6.78334 17.2379 7.41466 17.3884 7.81517 17.8399C8.20889 18.2777 8.27677 18.9413 7.93057 19.4543C7.7948 19.6596 7.57079 19.8306 7.35356 19.9606C6.38283 20.542 5.40531 21.1167 4.42101 21.6708C4.17663 21.8213 3.88473 21.8897 3.6132 21.9855Z" fill="#32335C"/>
<path d="M28.8454 5.27983C28.8387 4.71887 28.9812 4.32894 29.3614 4.1032C30.5154 3.41227 31.6762 2.72134 32.8506 2.07146C33.3597 1.79098 34.0046 1.98937 34.3779 2.44086C34.7513 2.88552 34.8056 3.51488 34.4798 4.00058C34.3644 4.17161 34.2014 4.33579 34.0181 4.44524C32.9863 5.06092 31.9477 5.66291 30.9091 6.26491C30.4814 6.51118 30.0402 6.57959 29.5786 6.36068C29.0898 6.12809 28.8726 5.69712 28.8454 5.27983Z" fill="#32335C"/>
</svg>
