<svg width="136" height="35" viewBox="0 0 136 35" fill="none" xmlns="http://www.w3.org/2000/svg">
<path d="M33.6737 26.8819L35.4803 18.8282H37.9617C41.4879 18.8282 44.4047 19.8077 44.3394 23.0509C44.2523 26.7077 40.5084 28.2096 36.3945 28.2096C35.7415 28.2096 35.1321 28.2096 34.5661 28.1879C33.4125 28.1008 33.6737 26.8819 33.6737 26.8819ZM52.306 23.2468C52.306 18.4146 48.8886 16.3033 46.1242 16.1074C49.6069 15.5197 54.2214 12.9512 54.2214 8.24962C54.2214 3.22152 49.1716 0.522461 41.5315 0.522461C38.0706 0.522461 34.6967 0.827194 31.6712 1.30606L26.2078 25.5759C26.2078 25.5759 24.3141 31.8447 29.6904 33.1507C31.1923 33.5207 32.2371 33.6513 33.8914 33.7601C48.1703 34.522 52.306 28.1008 52.306 23.2468ZM38.3535 6.16002C38.9412 6.07295 40.3125 5.98589 41.6403 5.98589C44.5135 5.98589 46.5596 6.98715 46.4943 9.31618C46.429 12.1458 43.5558 13.7348 39.4201 13.7348H37.8094C36.634 13.7348 36.9822 12.3853 36.9822 12.3853L38.3535 6.16002Z" fill="white"/>
<path d="M87.1979 33.8252C88.3515 33.8252 90.5499 33.3681 91.29 30.0378C91.8777 27.3822 92.879 22.8765 92.879 22.8765C93.6626 22.9418 94.7291 23.0724 95.9916 23.0724C108.224 23.0724 112.469 15.2147 112.469 9.88186C112.469 4.0484 108.42 0.718103 99.5831 0.674569C95.9698 0.652803 92.8354 0.783403 89.8534 1.45817L82.6704 33.8034H87.1979V33.8252ZM97.0364 6.37743C97.6676 6.29036 98.756 6.22506 100.214 6.22506C103.044 6.22506 105.417 7.05219 105.417 10.4696C105.417 13.9522 102.783 17.2825 97.6459 17.326C97.3194 17.326 96.9929 17.326 96.7099 17.3043C94.4026 17.3043 95.0556 15.3888 95.0556 15.3888L97.0364 6.37743Z" fill="white"/>
<path d="M64.7347 19.5247C64.7347 14.2572 68.152 6.39939 75.9662 6.39939C78.0123 6.39939 81.6909 6.92179 83.8022 8.81549C83.8022 8.81549 84.5858 6.13819 84.8253 5.02809C85.0429 3.93976 84.6294 2.13313 81.2773 1.0448C79.1006 0.348266 77.4028 0 75.0085 0C62.7539 0 56.4198 10.0562 56.4198 19.96C56.4198 30.5386 63.494 34.1083 70.7422 34.1083C73.3542 34.1083 75.052 33.8254 76.7063 33.2159C78.7088 32.5194 79.0353 30.7127 79.0353 30.7127L80.2325 25.2711C77.1416 27.5348 74.8561 27.8831 72.7665 27.8831C67.6949 27.9048 64.7347 24.6398 64.7347 19.5247Z" fill="white"/>
<path d="M21.9414 11.7537C22.1809 12.0802 25.1194 15.737 22.4203 20.0468C19.46 24.7702 11.4064 30.1248 9.12088 30.9302C4.68049 32.7803 1.67669 29.3412 1.41549 28.9929C0.588356 27.9264 0.392456 27.7087 0.000656434 26.9251C-0.0864101 27.0557 8.51141 23.0506 11.6023 17.8702C14.9326 13.4298 15.2373 4.70135 11.5805 3.06885C12.6688 3.63478 15.2808 5.11491 17.6316 7.20451C19.9607 9.18527 21.985 11.7755 21.9414 11.7537Z" fill="#F47D30"/>
<path d="M13.0171 15.3019C14.9108 10.6874 14.6061 4.41856 11.5805 3.06903C8.81613 1.76303 5.65996 5.46336 5.5076 5.65926C5.5076 5.65926 4.4628 6.92172 3.6792 8.70659C4.22337 9.01132 5.26816 9.51195 5.26816 9.51195C7.4013 10.535 10.2745 12.3416 13.0171 15.3019Z" fill="white"/>
<path d="M134.388 11.7537C134.627 12.0802 137.566 15.737 134.867 20.0468C131.928 24.7702 123.875 30.1248 121.589 30.9302C117.149 32.7803 114.145 29.3412 113.884 28.9929C113.057 27.9264 112.861 27.7087 112.469 26.9251C112.382 27.0557 120.98 23.0506 124.071 17.8702C127.401 13.4298 127.706 4.70135 124.049 3.06885C125.159 3.63478 127.749 5.11491 130.078 7.20451C132.407 9.18527 134.431 11.7755 134.388 11.7537Z" fill="#F47D30"/>
<path d="M125.464 15.3019C127.357 10.6874 127.052 4.41856 124.027 3.06903C121.263 1.76303 118.106 5.46336 117.954 5.65926C117.954 5.65926 116.909 6.92172 116.126 8.70659C116.67 9.01132 117.715 9.51195 117.715 9.51195C119.848 10.535 122.721 12.3416 125.464 15.3019Z" fill="white"/>
</svg>
