<svg width="28" height="28" viewBox="0 0 28 28" fill="none" xmlns="http://www.w3.org/2000/svg">
<g clip-path="url(#clip0_2048_3447)">
<path d="M27.5683 5.44423C27.0293 4.51789 26.0377 3.88867 24.8889 3.88867H14V5.44423H27.5683ZM0 19.4442H28V20.9998H0V19.4442ZM14 13.222H28V14.7776H14V13.222ZM14 10.1109H28V11.6664H14V10.1109ZM0 16.3331H28V17.8887H0V16.3331ZM3.11111 24.1109H24.8889C26.0377 24.1109 27.0293 23.4817 27.5683 22.5553H0.431667C0.970667 23.4817 1.96233 24.1109 3.11111 24.1109ZM14 6.99978H28V8.55534H14V6.99978Z" fill="#B22334"/>
<path d="M0.0528889 21.528C0.0658519 21.6006 0.0811482 21.6724 0.0987778 21.7434C0.119519 21.8212 0.14337 21.898 0.170333 21.9737C0.239556 22.1751 0.323556 22.3696 0.429333 22.5516L0.431667 22.5554H27.5683L27.5699 22.5523C27.6753 22.3695 27.7618 22.1764 27.8281 21.976C27.8786 21.8298 27.9181 21.6801 27.9463 21.528C27.9782 21.3569 28 21.1811 28 20.9999H0C0 21.1811 0.0217778 21.3561 0.0528889 21.528ZM0 17.8888H28V19.4443H0V17.8888ZM0 14.7777V16.3332H28V14.7777H14H0ZM14 11.6666H28V13.2221H14V11.6666ZM14 8.55545H28V10.111H14V8.55545ZM0.0995556 6.25634C0.119 6.177 0.146222 6.10156 0.171111 6.02534C0.144275 6.10138 0.120405 6.17844 0.0995556 6.25634ZM14 6.99989H28C28 6.81867 27.9782 6.64289 27.9463 6.471C27.9191 6.31864 27.8793 6.16879 27.8273 6.023C27.7609 5.8218 27.6741 5.6279 27.5683 5.44434H14V6.99989Z" fill="#EEEEEE"/>
<path d="M14 3.88867H3.11111C2.28599 3.88867 1.49467 4.21645 0.911223 4.7999C0.327777 5.38334 0 6.17466 0 6.99978L0 14.7776H14V3.88867Z" fill="#3C3B6E"/>
<path d="M1.5564 6.009L2.03706 6.35822L1.85351 6.92211L2.3334 6.57367L2.81406 6.92211L2.63051 6.35822L3.11117 6.009H2.51695L2.3334 5.44434L2.15062 6.009H1.5564ZM3.11195 7.56456L3.59262 7.91378L3.40906 8.47767L3.88895 8.12922L4.36962 8.47767L4.18606 7.91378L4.66673 7.56456H4.07251L3.88895 6.99989L3.70617 7.56456H3.11195ZM6.22306 7.56456L6.70373 7.91378L6.52017 8.47767L7.00006 8.12922L7.48073 8.47767L7.29717 7.91378L7.77784 7.56456H7.18362L7.00006 6.99989L6.81729 7.56456H6.22306ZM9.33417 7.56456L9.81484 7.91378L9.63128 8.47767L10.1112 8.12922L10.5918 8.47767L10.4083 7.91378L10.889 7.56456H10.2947L10.1112 6.99989L9.9284 7.56456H9.33417ZM3.11195 10.6757L3.59262 11.0249L3.40906 11.5888L3.88895 11.2403L4.36962 11.5888L4.18606 11.0249L4.66673 10.6757H4.07251L3.88895 10.111L3.70617 10.6757H3.11195ZM6.22306 10.6757L6.70373 11.0249L6.52017 11.5888L7.00006 11.2403L7.48073 11.5888L7.29717 11.0249L7.77784 10.6757H7.18362L7.00006 10.111L6.81729 10.6757H6.22306ZM9.33417 10.6757L9.81484 11.0249L9.63128 11.5888L10.1112 11.2403L10.5918 11.5888L10.4083 11.0249L10.889 10.6757H10.2947L10.1112 10.111L9.9284 10.6757H9.33417ZM4.66751 6.009L5.14817 6.35822L4.96462 6.92211L5.44451 6.57367L5.92517 6.92211L5.74162 6.35822L6.22229 6.009H5.62806L5.44451 5.44434L5.26173 6.009H4.66751ZM7.77862 6.009L8.25928 6.35822L8.07573 6.92211L8.55562 6.57367L9.03629 6.92211L8.85273 6.35822L9.3334 6.009H8.73917L8.55562 5.44434L8.37284 6.009H7.77862ZM10.8897 6.009L11.3704 6.35822L11.1868 6.92211L11.6667 6.57367L12.1474 6.92211L11.9638 6.35822L12.4445 6.009H11.8503L11.6667 5.44434L11.484 6.009H10.8897ZM1.5564 9.12011L2.03706 9.46934L1.85351 10.0332L2.3334 9.68478L2.81406 10.0332L2.63051 9.46934L3.11117 9.12011H2.51695L2.3334 8.55545L2.15062 9.12011H1.5564ZM4.96462 10.0332L5.44451 9.68478L5.92517 10.0332L5.74162 9.46934L6.22229 9.12011H5.62806L5.44451 8.55545L5.26173 9.12011H4.66751L5.14817 9.46934L4.96462 10.0332ZM7.77862 9.12011L8.25928 9.46934L8.07573 10.0332L8.55562 9.68478L9.03629 10.0332L8.85273 9.46934L9.3334 9.12011H8.73917L8.55562 8.55545L8.37284 9.12011H7.77862ZM10.8897 9.12011L11.3704 9.46934L11.1868 10.0332L11.6667 9.68478L12.1474 10.0332L11.9638 9.46934L12.4445 9.12011H11.8503L11.6667 8.55545L11.484 9.12011H10.8897ZM1.5564 12.2312L2.03706 12.5804L1.85351 13.1443L2.3334 12.7959L2.81406 13.1443L2.63051 12.5804L3.11117 12.2312H2.51695L2.3334 11.6666L2.15062 12.2312H1.5564ZM4.96462 13.1443L5.44451 12.7959L5.92517 13.1443L5.74162 12.5804L6.22229 12.2312H5.62806L5.44451 11.6666L5.26173 12.2312H4.66751L5.14817 12.5804L4.96462 13.1443ZM7.77862 12.2312L8.25928 12.5804L8.07573 13.1443L8.55562 12.7959L9.03629 13.1443L8.85273 12.5804L9.3334 12.2312H8.73917L8.55562 11.6666L8.37284 12.2312H7.77862ZM10.8897 12.2312L11.3704 12.5804L11.1868 13.1443L11.6667 12.7959L12.1474 13.1443L11.9638 12.5804L12.4445 12.2312H11.8503L11.6667 11.6666L11.484 12.2312H10.8897Z" fill="white"/>
</g>
<defs>
<clipPath id="clip0_2048_3447">
<rect width="28" height="28" fill="white"/>
</clipPath>
</defs>
</svg>
