<svg width="208" height="28" viewBox="0 0 208 28" fill="none" xmlns="http://www.w3.org/2000/svg">
<path d="M16.1242 23.9109L16.4374 26.6328C14.8281 26.9892 12.7651 27.2592 10.432 27.2592C2.23402 27.2592 0.225022 23.3492 0.225022 14.4167C0.225022 5.47345 2.24482 1.57426 10.432 1.57426C12.7543 1.57426 14.8281 1.83349 16.4374 2.18992L16.1134 4.92259C14.6553 4.69577 13.0351 4.52295 11.4581 4.52295C4.18902 4.52295 3.82178 8.32493 3.82178 14.4167C3.82178 20.5302 4.25383 24.3105 11.4581 24.3105C13.0567 24.3105 14.6229 24.1485 16.1242 23.9109ZM23.8687 27H20.5636V12.5158C20.5636 11.3276 20.6068 10.2259 20.6932 9.11341C22.8318 7.9577 25.6077 7.50405 28.0811 7.50405C28.7184 7.50405 29.3124 7.52565 29.8741 7.57966L29.6041 10.2907C29.1504 10.2367 28.6428 10.2151 28.0811 10.2151C26.7094 10.2151 25.046 10.4635 23.9551 10.982C23.8903 11.8353 23.8687 12.9154 23.8687 13.8011V27ZM40.5942 27.2592C34.2215 27.2592 32.5474 23.0792 32.5474 17.3762C32.5474 10.3987 34.6752 7.50405 41.0262 7.50405C47.7337 7.50405 49.3647 11.0252 49.3647 16.5014C49.3647 17.009 49.3539 17.6139 49.3107 18.1431C47.1072 18.5212 42.5384 18.9532 39.8597 19.072L35.8417 19.2448C36.1225 23.0792 37.6563 24.559 41.6311 24.559C44.1693 24.559 46.5024 24.2997 48.479 24.0405L48.7706 26.5896C46.6212 26.9244 44.2666 27.2592 40.5942 27.2592ZM35.7661 16.8794L40.281 16.6742C41.8471 16.5986 44.4286 16.3933 45.9947 16.1881C46.0271 15.8641 46.0379 15.378 46.0379 15.0432C46.0379 11.9325 44.7634 10.0855 41.0262 10.0855C36.5654 10.0855 35.7661 12.6022 35.7661 16.8794ZM66.1674 8.13051V0.332135H69.4617V22.2475C69.4617 23.4356 69.4185 24.5374 69.3321 25.6499C67.2043 26.8056 64.4284 27.2592 61.955 27.2592C55.7444 27.2592 53.1413 24.8938 53.1413 17.3762C53.1413 9.9883 55.5716 7.50405 61.3717 7.50405C62.9703 7.50405 64.6445 7.75248 66.1674 8.13051ZM66.1674 10.7984C65.0873 10.4311 63.5104 10.1395 62.2682 10.1395C57.0189 10.1395 56.4789 12.6886 56.4789 17.3762C56.4789 21.7939 57.2673 24.6346 61.955 24.6346C63.3267 24.6346 64.9901 24.3861 66.0702 23.8677C66.135 23.0144 66.1674 21.9343 66.1674 21.0486V10.7984ZM76.5704 4.43655C75.0043 4.43655 74.5722 3.88569 74.5722 2.26553C74.5722 0.634563 75.0367 0.0729089 76.5704 0.0729089C78.115 0.0729089 78.5794 0.634563 78.5794 2.26553C78.5794 3.88569 78.1474 4.43655 76.5704 4.43655ZM74.9179 27V7.76328H78.2446V27H74.9179ZM86.9146 13.8119V27H83.6095V12.5482C83.6095 11.36 83.6527 10.2583 83.7391 9.14582C85.9209 8.14132 88.8804 7.50405 92.4232 7.50405C99.0875 7.50405 99.7571 10.6364 99.7571 14.5788V27H96.452V15.0432C96.452 11.6625 95.8471 10.1827 91.4295 10.1827C90.0037 10.1827 88.038 10.5068 87.0118 10.9928C86.9362 11.8353 86.9146 12.9154 86.9146 13.8119ZM112.559 27.2592C106.186 27.2592 104.512 23.0792 104.512 17.3762C104.512 10.3987 106.64 7.50405 112.991 7.50405C119.699 7.50405 121.33 11.0252 121.33 16.5014C121.33 17.009 121.319 17.6139 121.276 18.1431C119.072 18.5212 114.503 18.9532 111.825 19.072L107.807 19.2448C108.087 23.0792 109.621 24.559 113.596 24.559C116.134 24.559 118.467 24.2997 120.444 24.0405L120.735 26.5896C118.586 26.9244 116.231 27.2592 112.559 27.2592ZM107.731 16.8794L112.246 16.6742C113.812 16.5986 116.393 16.3933 117.96 16.1881C117.992 15.8641 118.003 15.378 118.003 15.0432C118.003 11.9325 116.728 10.0855 112.991 10.0855C108.53 10.0855 107.731 12.6022 107.731 16.8794ZM127.704 2.87039L131.02 2.33033V7.76328H135.167V10.2907H131.02V21.7723C131.02 24.1053 131.884 24.6454 133.969 24.6454C134.39 24.6454 134.789 24.6238 135.2 24.5914L135.459 27.0216C134.703 27.1512 133.753 27.2592 133.007 27.2592C129.281 27.2592 127.704 25.6499 127.704 22.1287V10.2907H124.312V7.76328H127.704V2.87039ZM143.177 1.83349L144.83 24.0621L153.697 6.12151C154.183 5.14942 154.659 4.69577 155.35 4.69577C156.03 4.69577 156.398 5.14942 156.56 6.13231L159.508 24.0513L168.106 1.83349H170.137L160.761 25.7903C160.362 26.8056 159.768 27.2592 159.055 27.2592C158.353 27.2592 157.975 26.784 157.813 25.7903L154.821 7.76328L145.899 25.7903C145.413 26.784 144.884 27.2592 144.182 27.2592C143.48 27.2592 143.037 26.7948 142.961 25.7903L141.06 1.83349H143.177ZM170.899 17.3762C172.001 10.3987 174.496 7.50405 180.653 7.50405C185.805 7.50405 187.598 9.76148 187.598 13.423C187.598 14.1791 187.522 15 187.382 15.8641C187.285 16.4473 187.144 17.2574 187.015 17.8515C184.8 18.2187 180.285 18.64 177.618 18.748L172.66 18.9532C172.617 19.5257 172.595 20.0657 172.595 20.5734C172.595 23.6409 173.556 25.477 178.341 25.477C180.771 25.477 183.061 25.1962 185.038 24.9154L184.962 26.6436C182.705 26.9784 180.609 27.2592 177.067 27.2592C172.206 27.2592 170.608 24.6238 170.608 20.6706C170.608 19.6553 170.716 18.5428 170.899 17.3762ZM172.865 17.2898L178.374 17.0306C180.156 16.9442 183.288 16.6958 185.254 16.4581C185.362 16.0153 185.47 15.3888 185.546 14.9244C185.621 14.4167 185.664 13.9307 185.664 13.477C185.664 10.8956 184.271 9.25383 180.415 9.25383C175.457 9.25383 173.751 11.7165 172.865 17.2898ZM200.925 7.50405C205.44 7.50405 207.481 9.15662 207.481 13.6823C207.481 14.7516 207.362 15.9721 207.146 17.3762C205.958 24.8506 203.096 27.2592 197.188 27.2592C194.854 27.2592 192.37 26.8488 190.48 25.7687C190.588 24.7534 190.728 23.6517 190.901 22.5824L194.433 0.332135H196.41L195.146 8.30333C197.047 7.81728 198.937 7.50405 200.925 7.50405ZM194.865 10.1071L193.083 21.3294C192.932 22.2583 192.748 23.5653 192.629 24.5266C193.99 25.1962 195.913 25.4986 197.468 25.4986C202.232 25.4986 204.219 23.198 205.148 17.3762C205.364 16.0477 205.483 14.9028 205.483 13.9307C205.483 10.5392 204.014 9.27543 199.877 9.27543C198.235 9.27543 196.194 9.66427 194.865 10.1071Z" fill="white"/>
</svg>
