<svg width="26" height="26" viewBox="0 0 512 512" version="1.1"
                    xmlns="http://www.w3.org/2000/svg"
                    style="filter: drop-shadow(0px 1px 1px rgba(0,0,0,0.3));">
                    <!-- Path principal con mayor grosor -->
                    <path fill="#153F7B" stroke="#153F7B" stroke-width="2" opacity="0.98"
                      d="M 234.5 104 L 277.5 104 L 278.5 105 L 302.5 107 L 338.5 115 L 359.5 122 Q 422.1 146.4 465 190.5 Q 484.8 210.7 501 234.5 L 512 253.5 L 512 258.5 Q 492.1 295.1 463.5 323 Q 421 366 359.5 390 Q 333.3 399.8 302.5 405 L 288.5 406 L 287.5 407 L 277.5 407 L 276.5 408 L 235.5 408 L 234.5 407 L 224.5 407 L 223.5 406 L 203.5 404 L 177.5 398 Q 154 391.5 133.5 382 Q 109.9 371.1 89.5 357 L 68.5 341 L 48.5 322 L 47 322 L 47 320.5 L 29 301.5 L 11 277.5 L 0 258.5 L 0 253.5 L 18 224.5 L 47 190 L 48.5 190 L 68.5 171 L 89.5 155 Q 109.9 140.9 133.5 130 Q 154 120.5 177.5 114 L 203.5 108 L 223.5 106 L 224.5 105 L 233.5 105 L 234.5 104 Z M 242 125 L 241 126 L 221 127 L 198 131 L 169 139 L 153 145 Q 108 163 76 193 Q 45 220 23 256 Q 35 277 51 295 Q 89 338 146 364 L 169 373 L 198 381 L 221 385 L 228 385 L 229 386 L 241 386 L 242 387 L 271 387 L 272 386 L 284 386 L 285 385 L 299 384 L 331 377 L 347 372 Q 399 353 437 319 Q 467 292 489 257 Q 477 234 460 217 Q 420 171 360 145 L 331 135 L 305 129 L 285 127 L 284 126 L 272 126 L 271 125 L 242 125 Z " />
                    <path fill="#153F7B" stroke="#153F7B" stroke-width="2" opacity="0.98"
                      d="M 248.5 160 L 271.5 161 L 292.5 167 Q 314.7 176.3 329 193.5 Q 341.3 207.7 348 227.5 L 352 248.5 L 352 263.5 L 348 284.5 L 339 304.5 Q 330.6 318.6 318.5 329 Q 304.3 341.3 284.5 348 L 263.5 352 L 248.5 352 L 227.5 348 L 207.5 339 Q 193.4 330.6 183 318.5 Q 170.7 304.3 164 284.5 L 160 263.5 L 160 248.5 L 164 227.5 L 173 207.5 Q 181.4 193.4 193.5 183 Q 204.6 173.1 219.5 167 L 235.5 162 L 247.5 161 L 248.5 160 Z M 245 182 Q 221 186 207 200 Q 187 215 182 245 L 182 268 L 184 277 Q 189 294 200 306 Q 216 324 245 330 L 268 330 L 277 328 Q 294 323 306 312 Q 324 296 330 268 L 330 245 L 328 236 Q 323 218 312 207 Q 301 193 283 186 L 268 182 L 245 182 Z " />
                  </svg>
