<svg width="20" height="20" viewBox="0 0 20 20" fill="none" xmlns="http://www.w3.org/2000/svg">
<path d="M10.5 19.937C13.0196 19.937 15.4359 18.9361 17.2175 17.1545C18.9991 15.3729 20 12.9566 20 10.437C20 7.91746 18.9991 5.50109 17.2175 3.7195C15.4359 1.9379 13.0196 0.937012 10.5 0.937012C7.98044 0.937012 5.56408 1.9379 3.78249 3.7195C2.00089 5.50109 1 7.91746 1 10.437C1 12.9566 2.00089 15.3729 3.78249 17.1545C5.56408 18.9361 7.98044 19.937 10.5 19.937ZM9.01562 13.4058H9.90625V11.0308H9.01562C8.52207 11.0308 8.125 10.6337 8.125 10.1401C8.125 9.64658 8.52207 9.24951 9.01562 9.24951H10.7969C11.2904 9.24951 11.6875 9.64658 11.6875 10.1401V13.4058H11.9844C12.4779 13.4058 12.875 13.8028 12.875 14.2964C12.875 14.7899 12.4779 15.187 11.9844 15.187H9.01562C8.52207 15.187 8.125 14.7899 8.125 14.2964C8.125 13.8028 8.52207 13.4058 9.01562 13.4058ZM10.5 5.68701C10.8149 5.68701 11.117 5.81212 11.3397 6.03482C11.5624 6.25752 11.6875 6.55957 11.6875 6.87451C11.6875 7.18946 11.5624 7.4915 11.3397 7.7142C11.117 7.9369 10.8149 8.06201 10.5 8.06201C10.1851 8.06201 9.88301 7.9369 9.66031 7.7142C9.43761 7.4915 9.3125 7.18946 9.3125 6.87451C9.3125 6.55957 9.43761 6.25752 9.66031 6.03482C9.88301 5.81212 10.1851 5.68701 10.5 5.68701Z" fill="#32335C"/>
</svg>
