<svg width="189" height="47" viewBox="0 0 189 47" fill="none" xmlns="http://www.w3.org/2000/svg">
<path d="M12.6578 3.99257C-0.332407 10.6613 -0.221038 22.6287 0.897722 28.9121C12.1736 10.7603 24.1306 17.046 26.0647 18.2647C29.673 20.4397 34.4724 23.0135 38.6857 19.1678C47.417 10.1389 28.6853 -4.23542 12.6578 3.99257Z" fill="url(#paint0_linear_3213_104)"/>
<path d="M19.0267 17.0392C24.6442 6.5829 34.9707 7.60721 39.4318 9.4264C28.0647 -6.56393 4.22748 1.9179 0.950694 17.4911C-2.42118 33.5162 8.73311 40.2397 9.49787 40.7611C14.3297 43.7853 22.6072 35.2195 19.8262 31.6738C17.0453 28.1281 16.3848 22.0101 19.0267 17.0392Z" fill="url(#paint1_linear_3213_104)"/>
<path d="M11.4683 42.5886C-1.16454 35.2654 -0.557844 22.2851 0.909159 17.4919C6.73136 37.0525 23.5925 30.1379 25.5863 29.0194C29.3009 27.0315 34.2255 24.7061 38.2369 28.7619C46.496 38.2247 27.0549 51.624 11.4683 42.5886Z" fill="url(#paint2_linear_3213_104)"/>
<path d="M61.1407 29.2735C60.0534 29.5111 58.6708 29.6911 57.1443 29.6911C52.9751 29.6911 51.5133 28.107 51.5133 24.593C51.5133 23.5921 51.6285 22.4472 51.8374 21.1295C52.7806 15.1673 54.5088 12.5678 59.859 12.5678C61.3783 12.5678 62.7104 12.7406 63.7185 12.9783L63.2217 14.8C62.2856 14.6488 61.2487 14.5336 60.219 14.5336C55.4665 14.5336 54.8328 17.0683 54.1848 21.1295C53.9976 22.3032 53.8536 23.3473 53.8536 24.233C53.8536 26.458 54.7536 27.7253 58.1308 27.7253C59.1677 27.7253 60.219 27.6101 61.2199 27.4589L61.1407 29.2735ZM66.1035 29.5183H63.9504L65.477 19.8621C65.5994 19.0701 65.7506 18.3356 65.9234 17.5939C67.4356 16.8234 69.3006 16.521 70.9135 16.521C71.3312 16.521 71.72 16.5354 72.0801 16.5714L71.6192 18.3788C71.324 18.3428 70.9927 18.3284 70.6255 18.3284C69.7326 18.3284 68.6165 18.494 67.8532 18.8396C67.7164 19.4085 67.5868 20.1286 67.4932 20.719L66.1035 29.5183ZM72.8053 23.1025C73.5398 18.4508 75.2391 16.521 79.394 16.521C82.9295 16.521 84.06 18.0548 84.06 20.5678C84.06 21.1655 83.9952 21.8207 83.8872 22.5192C83.8296 22.8576 83.7576 23.2609 83.6784 23.6137C82.2022 23.8657 79.1707 24.1538 77.4066 24.233L74.7639 24.3482C74.7423 24.6146 74.7279 24.8594 74.7279 25.0899C74.7279 27.0989 75.6352 27.8909 77.9898 27.8909C79.646 27.8909 81.1941 27.7181 82.5119 27.5453L82.4327 29.2447C80.9925 29.4679 79.4228 29.6911 77.0249 29.6911C73.7054 29.6911 72.6181 27.9125 72.6181 25.2627C72.6181 24.593 72.6829 23.8729 72.8053 23.1025ZM74.9583 22.7712L77.9322 22.6344C78.9691 22.584 80.6685 22.4472 81.7198 22.3104C81.7774 22.0944 81.835 21.7703 81.871 21.5471C81.9214 21.2159 81.9502 20.899 81.9502 20.611C81.9502 19.1061 81.1797 18.242 79.1347 18.242C76.2328 18.242 75.412 19.9198 74.9583 22.7712ZM95.5639 16.9387L96.3848 11.7397H98.545L96.2263 26.35C96.1039 27.1421 95.9599 27.8765 95.7871 28.6182C94.2677 29.3887 92.4028 29.6911 90.7898 29.6911C87.4415 29.6911 85.8645 28.6182 85.8645 25.4211C85.8645 24.7442 85.9365 23.9738 86.0733 23.1025C86.851 18.1772 88.7088 16.521 92.4964 16.521C93.5405 16.521 94.6134 16.6866 95.5639 16.9387ZM92.7988 18.278C89.3713 18.278 88.752 19.9774 88.2551 23.1025C88.1399 23.8225 88.0679 24.485 88.0679 25.0683C88.0679 26.8612 88.7592 27.9414 91.0706 27.9414C91.9635 27.9414 93.0724 27.7757 93.8357 27.4301C93.9725 26.8612 94.1021 26.1412 94.1957 25.5507L95.2758 18.7172C94.6134 18.4724 93.6125 18.278 92.7988 18.278ZM104.321 12.4814C104.321 12.6398 104.306 12.8198 104.27 13.0287C104.105 14.116 103.766 14.476 102.736 14.476C101.916 14.476 101.606 14.2384 101.606 13.5831C101.606 13.4247 101.62 13.2447 101.656 13.0287C101.829 11.9414 102.196 11.5669 103.197 11.5669C104.004 11.5669 104.321 11.8117 104.321 12.4814ZM99.2729 29.5183L101.303 16.6938H103.471L101.44 29.5183H99.2729ZM108.694 20.7262L107.305 29.5183H105.145L106.671 19.8837C106.801 19.0917 106.945 18.3572 107.11 17.6155C108.644 16.9459 110.646 16.521 112.965 16.521C116.349 16.521 117.163 17.7811 117.163 19.5813C117.163 20.0926 117.098 20.6542 117.004 21.2375L115.694 29.5183H113.533L114.793 21.5471C114.873 21.0575 114.916 20.6326 114.916 20.2582C114.916 18.9189 114.282 18.314 112.028 18.314C111.092 18.314 109.775 18.5228 109.055 18.8468C108.918 19.4085 108.788 20.1286 108.694 20.7262ZM119.797 23.1025C120.532 18.4508 122.231 16.521 126.386 16.521C129.922 16.521 131.052 18.0548 131.052 20.5678C131.052 21.1655 130.987 21.8207 130.879 22.5192C130.822 22.8576 130.75 23.2609 130.671 23.6137C129.194 23.8657 126.163 24.1538 124.399 24.233L121.756 24.3482C121.734 24.6146 121.72 24.8594 121.72 25.0899C121.72 27.0989 122.627 27.8909 124.982 27.8909C126.638 27.8909 128.186 27.7181 129.504 27.5453L129.425 29.2447C127.985 29.4679 126.415 29.6911 124.017 29.6911C120.698 29.6911 119.61 27.9125 119.61 25.2627C119.61 24.593 119.675 23.8729 119.797 23.1025ZM121.951 22.7712L124.924 22.6344C125.961 22.584 127.661 22.4472 128.712 22.3104C128.77 22.0944 128.827 21.7703 128.863 21.5471C128.914 21.2159 128.942 20.899 128.942 20.611C128.942 19.1061 128.172 18.242 126.127 18.242C123.225 18.242 122.404 19.9198 121.951 22.7712ZM136.353 13.4319L138.578 13.0719L138.002 16.6938H140.716L140.45 18.3788H137.735L136.518 26.0332C136.482 26.278 136.461 26.5012 136.461 26.6884C136.461 27.6965 137.008 27.9486 138.146 27.9486C138.427 27.9486 138.686 27.9342 138.959 27.9125L138.866 29.5327C138.362 29.6191 137.728 29.6911 137.238 29.6911C135.172 29.6911 134.228 28.9135 134.228 27.2285C134.228 26.9405 134.257 26.6164 134.315 26.2708L135.568 18.3788H133.35L133.624 16.6938H135.834L136.353 13.4319ZM144.637 12.7406L145.739 27.5597L151.651 15.5993C151.975 14.9513 152.292 14.6488 152.753 14.6488C153.206 14.6488 153.451 14.9513 153.559 15.6065L155.525 27.5525L161.257 12.7406H162.61L156.36 28.7118C156.094 29.3887 155.698 29.6911 155.222 29.6911C154.754 29.6911 154.502 29.3743 154.394 28.7118L152.4 16.6938L146.452 28.7118C146.128 29.3743 145.775 29.6911 145.307 29.6911C144.839 29.6911 144.544 29.3815 144.493 28.7118L143.226 12.7406H144.637ZM163.119 23.1025C163.853 18.4508 165.517 16.521 169.621 16.521C173.056 16.521 174.251 18.026 174.251 20.467C174.251 20.9711 174.201 21.5183 174.107 22.0944C174.042 22.4832 173.949 23.0233 173.862 23.4193C172.386 23.6641 169.376 23.945 167.598 24.017L164.292 24.1538C164.264 24.5354 164.249 24.8954 164.249 25.2339C164.249 27.2789 164.89 28.503 168.08 28.503C169.7 28.503 171.227 28.3158 172.544 28.1286L172.494 29.2807C170.989 29.5039 169.592 29.6911 167.23 29.6911C163.99 29.6911 162.924 27.9342 162.924 25.2987C162.924 24.6218 162.996 23.8801 163.119 23.1025ZM164.429 23.0449L168.102 22.872C169.29 22.8144 171.378 22.6488 172.688 22.4904C172.761 22.1952 172.833 21.7775 172.883 21.4679C172.933 21.1295 172.962 20.8054 172.962 20.503C172.962 18.782 172.033 17.6875 169.463 17.6875C166.157 17.6875 165.02 19.3293 164.429 23.0449ZM183.136 16.521C186.146 16.521 187.507 17.6227 187.507 20.6398C187.507 21.3527 187.427 22.1664 187.283 23.1025C186.491 28.0854 184.583 29.6911 180.644 29.6911C179.089 29.6911 177.433 29.4175 176.173 28.6974C176.245 28.0206 176.338 27.2861 176.453 26.5732L178.808 11.7397H180.126L179.283 17.0539C180.551 16.7298 181.811 16.521 183.136 16.521ZM179.096 18.2564L177.908 25.7379C177.807 26.3572 177.685 27.2285 177.606 27.8693C178.513 28.3158 179.795 28.5174 180.831 28.5174C184.007 28.5174 185.332 26.9837 185.951 23.1025C186.095 22.2168 186.174 21.4535 186.174 20.8054C186.174 18.5444 185.195 17.7019 182.437 17.7019C181.343 17.7019 179.982 17.9612 179.096 18.2564Z" fill="#32335C"/>
<defs>
<linearGradient id="paint0_linear_3213_104" x1="33.8486" y1="15.8345" x2="32.3241" y2="7.66847" gradientUnits="userSpaceOnUse">
<stop stop-color="#34B1CF"/>
<stop offset="1" stop-color="#153F7B"/>
</linearGradient>
<linearGradient id="paint1_linear_3213_104" x1="26.7066" y1="45.5201" x2="63.9512" y2="6.15106" gradientUnits="userSpaceOnUse">
<stop stop-color="#002B76"/>
<stop offset="1" stop-color="#34B1CF"/>
</linearGradient>
<linearGradient id="paint2_linear_3213_104" x1="23.262" y1="18.3279" x2="26.9066" y2="38.0378" gradientUnits="userSpaceOnUse">
<stop stop-color="#002B76"/>
<stop offset="0.808385" stop-color="#34B1CF"/>
</linearGradient>
</defs>
</svg>
