<svg width="540" height="759" viewBox="0 0 540 759" fill="none" xmlns="http://www.w3.org/2000/svg">
<g opacity="0.3">
<path d="M394.94 -191.423C-10.3829 16.6566 -6.90791 390.063 27.9998 586.119C379.831 19.7429 752.915 215.871 813.264 253.898C925.848 321.761 1075.6 402.071 1207.07 282.075C1479.5 0.355974 895.032 -448.154 394.94 -191.423Z" fill="url(#paint0_linear_306_284)"/>
<path d="M593.654 215.655C768.931 -110.604 1091.14 -78.6429 1230.34 -21.8804C875.659 -520.813 131.886 -256.162 29.6435 229.755C-75.5662 729.772 272.472 939.559 296.334 955.829C447.098 1050.19 705.372 782.919 618.601 672.287C531.83 561.654 511.222 370.758 593.654 215.655Z" fill="url(#paint1_linear_306_284)"/>
<path d="M357.833 1012.86C-36.3399 784.356 -14.2736 371.058 31.5 221.5C213.165 831.832 736.133 624.368 798.345 589.47C914.247 527.443 1067.9 454.884 1193.07 581.433C1450.77 876.693 844.166 1294.78 357.833 1012.86Z" fill="url(#paint2_linear_306_284)"/>
</g>
<defs>
<linearGradient id="paint0_linear_306_284" x1="1056.14" y1="178.07" x2="1008.57" y2="-76.7274" gradientUnits="userSpaceOnUse">
<stop stop-color="#34B1CF"/>
<stop offset="1" stop-color="#153F7B"/>
</linearGradient>
<linearGradient id="paint1_linear_306_284" x1="833.281" y1="1104.32" x2="1995.39" y2="-124.078" gradientUnits="userSpaceOnUse">
<stop stop-color="#002B76"/>
<stop offset="1" stop-color="#34B1CF"/>
</linearGradient>
<linearGradient id="paint2_linear_306_284" x1="725.821" y1="255.871" x2="839.541" y2="870.861" gradientUnits="userSpaceOnUse">
<stop stop-color="#002B76"/>
<stop offset="0.808385" stop-color="#34B1CF"/>
</linearGradient>
</defs>
</svg>
