<svg width="189" height="47" viewBox="0 0 189 47" fill="none" xmlns="http://www.w3.org/2000/svg">
<path d="M12.6575 3.99257C-0.332773 10.6613 -0.221404 22.6287 0.897356 28.9121C12.1732 10.7603 24.1302 17.046 26.0644 18.2647C29.6726 20.4397 34.4721 23.0135 38.6853 19.1678C47.4167 10.1389 28.6849 -4.23542 12.6575 3.99257Z" fill="url(#paint0_linear_5713_4007)"/>
<path d="M19.0261 17.0392C24.6436 6.5829 34.9701 7.60721 39.4312 9.4264C28.0641 -6.56393 4.22687 1.9179 0.950084 17.4911C-2.42179 33.5162 8.7325 40.2397 9.49726 40.7611C14.3291 43.7853 22.6066 35.2195 19.8256 31.6738C17.0447 28.1281 16.3842 22.0101 19.0261 17.0392Z" fill="url(#paint1_linear_5713_4007)"/>
<path d="M11.468 42.5885C-1.1649 35.2653 -0.55821 22.285 0.908793 17.4919C6.73099 37.0524 23.5922 30.1378 25.586 29.0194C29.3005 27.0315 34.2251 24.706 38.2366 28.7618C46.4956 38.2246 27.0545 51.624 11.468 42.5885Z" fill="url(#paint2_linear_5713_4007)"/>
<path d="M61.141 29.2735C60.0537 29.5111 58.6712 29.6911 57.1446 29.6911C52.9754 29.6911 51.5137 28.107 51.5137 24.593C51.5137 23.5921 51.6289 22.4472 51.8377 21.1295C52.781 15.1673 54.5092 12.5678 59.8593 12.5678C61.3787 12.5678 62.7108 12.7406 63.7189 12.9783L63.2221 14.8C62.286 14.6488 61.2491 14.5336 60.2194 14.5336C55.4669 14.5336 54.8332 17.0683 54.1852 21.1295C53.9979 22.3032 53.8539 23.3473 53.8539 24.233C53.8539 26.458 54.754 27.7253 58.1311 27.7253C59.168 27.7253 60.2194 27.6101 61.2203 27.4589L61.141 29.2735ZM66.1038 29.5183H63.9508L65.4774 19.8621C65.5998 19.0701 65.751 18.3356 65.9238 17.5939C67.436 16.8234 69.3009 16.521 70.9139 16.521C71.3315 16.521 71.7204 16.5354 72.0804 16.5714L71.6196 18.3788C71.3243 18.3428 70.9931 18.3284 70.6259 18.3284C69.733 18.3284 68.6169 18.494 67.8536 18.8396C67.7168 19.4085 67.5872 20.1286 67.4936 20.719L66.1038 29.5183ZM72.8057 23.1025C73.5401 18.4508 75.2395 16.521 79.3943 16.521C82.9299 16.521 84.0604 18.0548 84.0604 20.5678C84.0604 21.1655 83.9956 21.8207 83.8876 22.5192C83.83 22.8576 83.758 23.2609 83.6788 23.6137C82.2026 23.8657 79.1711 24.1538 77.4069 24.233L74.7643 24.3482C74.7427 24.6146 74.7283 24.8594 74.7283 25.0899C74.7283 27.0989 75.6355 27.8909 77.9902 27.8909C79.6463 27.8909 81.1945 27.7181 82.5122 27.5453L82.433 29.2447C80.9929 29.4679 79.4231 29.6911 77.0253 29.6911C73.7058 29.6911 72.6184 27.9125 72.6184 25.2627C72.6184 24.593 72.6833 23.8729 72.8057 23.1025ZM74.9587 22.7712L77.9326 22.6344C78.9695 22.584 80.6689 22.4472 81.7202 22.3104C81.7778 22.0944 81.8354 21.7703 81.8714 21.5471C81.9218 21.2159 81.9506 20.899 81.9506 20.611C81.9506 19.1061 81.1801 18.242 79.1351 18.242C76.2332 18.242 75.4123 19.9198 74.9587 22.7712ZM95.5642 16.9387L96.3851 11.7397H98.5453L96.2267 26.35C96.1043 27.1421 95.9603 27.8765 95.7875 28.6182C94.2681 29.3887 92.4031 29.6911 90.7902 29.6911C87.4418 29.6911 85.8649 28.6182 85.8649 25.4211C85.8649 24.7442 85.9369 23.9738 86.0737 23.1025C86.8514 18.1772 88.7092 16.521 92.4967 16.521C93.5408 16.521 94.6137 16.6866 95.5642 16.9387ZM92.7992 18.278C89.3716 18.278 88.7524 19.9774 88.2555 23.1025C88.1403 23.8225 88.0683 24.485 88.0683 25.0683C88.0683 26.8612 88.7596 27.9414 91.071 27.9414C91.9639 27.9414 93.0728 27.7757 93.8361 27.4301C93.9729 26.8612 94.1025 26.1412 94.1961 25.5507L95.2762 18.7172C94.6137 18.4724 93.6128 18.278 92.7992 18.278ZM104.321 12.4814C104.321 12.6398 104.307 12.8198 104.271 13.0287C104.105 14.116 103.766 14.476 102.737 14.476C101.916 14.476 101.606 14.2384 101.606 13.5831C101.606 13.4247 101.621 13.2447 101.657 13.0287C101.829 11.9414 102.197 11.5669 103.198 11.5669C104.004 11.5669 104.321 11.8117 104.321 12.4814ZM99.2732 29.5183L101.304 16.6938H103.471L101.441 29.5183H99.2732ZM108.695 20.7262L107.305 29.5183H105.145L106.671 19.8837C106.801 19.0917 106.945 18.3572 107.111 17.6155C108.644 16.9459 110.646 16.521 112.965 16.521C116.349 16.521 117.163 17.7811 117.163 19.5813C117.163 20.0926 117.098 20.6542 117.004 21.2375L115.694 29.5183H113.534L114.794 21.5471C114.873 21.0575 114.916 20.6326 114.916 20.2582C114.916 18.9189 114.283 18.314 112.029 18.314C111.093 18.314 109.775 18.5228 109.055 18.8468C108.918 19.4085 108.788 20.1286 108.695 20.7262ZM119.798 23.1025C120.532 18.4508 122.232 16.521 126.387 16.521C129.922 16.521 131.053 18.0548 131.053 20.5678C131.053 21.1655 130.988 21.8207 130.88 22.5192C130.822 22.8576 130.75 23.2609 130.671 23.6137C129.195 23.8657 126.163 24.1538 124.399 24.233L121.756 24.3482C121.735 24.6146 121.72 24.8594 121.72 25.0899C121.72 27.0989 122.628 27.8909 124.982 27.8909C126.639 27.8909 128.187 27.7181 129.504 27.5453L129.425 29.2447C127.985 29.4679 126.415 29.6911 124.017 29.6911C120.698 29.6911 119.611 27.9125 119.611 25.2627C119.611 24.593 119.675 23.8729 119.798 23.1025ZM121.951 22.7712L124.925 22.6344C125.962 22.584 127.661 22.4472 128.712 22.3104C128.77 22.0944 128.828 21.7703 128.864 21.5471C128.914 21.2159 128.943 20.899 128.943 20.611C128.943 19.1061 128.172 18.242 126.127 18.242C123.225 18.242 122.405 19.9198 121.951 22.7712ZM136.353 13.4319L138.578 13.0719L138.002 16.6938H140.717L140.45 18.3788H137.736L136.519 26.0332C136.483 26.278 136.461 26.5012 136.461 26.6884C136.461 27.6965 137.008 27.9486 138.146 27.9486C138.427 27.9486 138.686 27.9342 138.96 27.9125L138.866 29.5327C138.362 29.6191 137.728 29.6911 137.239 29.6911C135.172 29.6911 134.229 28.9135 134.229 27.2285C134.229 26.9405 134.258 26.6164 134.315 26.2708L135.568 18.3788H133.35L133.624 16.6938H135.835L136.353 13.4319ZM144.638 12.7406L145.739 27.5597L151.651 15.5993C151.975 14.9513 152.292 14.6488 152.753 14.6488C153.207 14.6488 153.451 14.9513 153.559 15.6065L155.525 27.5525L161.257 12.7406H162.611L156.36 28.7118C156.094 29.3887 155.698 29.6911 155.223 29.6911C154.755 29.6911 154.503 29.3743 154.395 28.7118L152.4 16.6938L146.452 28.7118C146.128 29.3743 145.775 29.6911 145.307 29.6911C144.839 29.6911 144.544 29.3815 144.494 28.7118L143.226 12.7406H144.638ZM163.119 23.1025C163.854 18.4508 165.517 16.521 169.621 16.521C173.056 16.521 174.251 18.026 174.251 20.467C174.251 20.9711 174.201 21.5183 174.107 22.0944C174.043 22.4832 173.949 23.0233 173.863 23.4193C172.386 23.6641 169.377 23.945 167.598 24.017L164.293 24.1538C164.264 24.5354 164.25 24.8954 164.25 25.2339C164.25 27.2789 164.89 28.503 168.08 28.503C169.701 28.503 171.227 28.3158 172.545 28.1286L172.494 29.2807C170.989 29.5039 169.593 29.6911 167.231 29.6911C163.99 29.6911 162.925 27.9342 162.925 25.2987C162.925 24.6218 162.997 23.8801 163.119 23.1025ZM164.43 23.0449L168.102 22.872C169.29 22.8144 171.378 22.6488 172.689 22.4904C172.761 22.1952 172.833 21.7775 172.883 21.4679C172.934 21.1295 172.962 20.8054 172.962 20.503C172.962 18.782 172.034 17.6875 169.463 17.6875C166.158 17.6875 165.02 19.3293 164.43 23.0449ZM183.136 16.521C186.146 16.521 187.507 17.6227 187.507 20.6398C187.507 21.3527 187.428 22.1664 187.284 23.1025C186.492 28.0854 184.583 29.6911 180.645 29.6911C179.089 29.6911 177.433 29.4175 176.173 28.6974C176.245 28.0206 176.339 27.2861 176.454 26.5732L178.808 11.7397H180.126L179.284 17.0539C180.551 16.7298 181.811 16.521 183.136 16.521ZM179.096 18.2564L177.908 25.7379C177.808 26.3572 177.685 27.2285 177.606 27.8693C178.513 28.3158 179.795 28.5174 180.832 28.5174C184.007 28.5174 185.332 26.9837 185.952 23.1025C186.096 22.2168 186.175 21.4535 186.175 20.8054C186.175 18.5444 185.195 17.7019 182.438 17.7019C181.343 17.7019 179.982 17.9612 179.096 18.2564Z" fill="#32335C"/>
<defs>
<linearGradient id="paint0_linear_5713_4007" x1="33.8483" y1="15.8345" x2="32.3238" y2="7.66847" gradientUnits="userSpaceOnUse">
<stop stop-color="#34B1CF"/>
<stop offset="1" stop-color="#153F7B"/>
</linearGradient>
<linearGradient id="paint1_linear_5713_4007" x1="26.7059" y1="45.5201" x2="63.9506" y2="6.15106" gradientUnits="userSpaceOnUse">
<stop stop-color="#002B76"/>
<stop offset="1" stop-color="#34B1CF"/>
</linearGradient>
<linearGradient id="paint2_linear_5713_4007" x1="23.2616" y1="18.3279" x2="26.9063" y2="38.0377" gradientUnits="userSpaceOnUse">
<stop stop-color="#002B76"/>
<stop offset="0.808385" stop-color="#34B1CF"/>
</linearGradient>
</defs>
</svg>
